<svg xmlns="http://www.w3.org/2000/svg"><defs><font id="covered_by_your_graceregular" horiz-adv-x="844"><font-face units-per-em="2048" ascent="1638" descent="-410"/><glyph horiz-adv-x="2048"/><glyph horiz-adv-x="2048"/><glyph horiz-adv-x="820"/><glyph horiz-adv-x="820"/><glyph horiz-adv-x="820"/><glyph horiz-adv-x="820"/><glyph unicode="!" horiz-adv-x="242" d="M36 68q0 20 15 38t29 30h32q34 0 57-15t23-51q0-12-8-25t-21-24-29-17-30-4Q84 4 60 24T36 68zm0 666q0 22 1 39t9 39v684q0 6 9 13t20 13 22 10 15 4q34 0 51-24t27-50q0-16-1-53t-1-78 1-79 1-52q0-10 1-43t3-72 3-73 1-42q0-10-1-42t-2-69-3-73-2-52q-4-36-20-64t-58-28q-44 0-60 24t-16 68z"/><glyph unicode="&quot;" horiz-adv-x="506" d="M86 986v26q2 34 6 86t8 102 7 86 3 38l16 50q0 2 12 3t18 1q58 0 70-32t12-84q0-100-8-202t-20-200q-2-36-38-36-26 0-43 19t-26 44-13 53-4 46zm208 366q-8 32 13 46t47 14q34 0 52-23t24-53q2-24 5-80t7-119 8-120 4-79v-46q0-20-1-31t-5-19-14-15-28-15h-6q-36 0-52 30t-22 71-5 81-1 60q-2 18-5 60t-7 89-8 89-6 60z"/><glyph unicode="#" horiz-adv-x="882" d="M24 896q0 10 16 25t20 17l152 86 18 16q2 24 4 46 2 18 2 38t2 32v146q6 22 23 27t41 5q20 0 31-12t21-28q0-8 2-29t3-44 2-44 1-29q-2-10-2-18t2-15 8-9l27 9 25 9q8 0 8 8 10 54 11 122t-1 114q8 22 23 28t37 6q36 0 53-25t21-60 2-71-2-60q26 0 51 7t51 7q12 0 18-12t6-22q0-16-15-31t-34-28-39-23-30-12q-10-8-9-23t1-25v-14l1-26 2-25 5-11h8q8 4 29 14t44 22 43 23 30 17q20 10 43 21t45 11q16 0 19-5t3-19q0-2-1-3t-1-5v-8q-4-6-12-17t-17-23-18-23-11-15l-10-10-6-8-180-118q-8-6-8-9v-15q0-72 13-142t13-142v-62q-4-22-21-25t-33-3q-24 0-38 5t-24 31q-12 66-23 131t-21 131h-8q-16 0-34-11t-18-27q0-50 9-102t9-104q0-30-14-54t-48-24q-22 0-26 5t-22 11q-2 8-4 27t-5 39-6 38-3 24v44l-4 21-12 11q-24-12-49-20t-53-8q-16 0-41 6t-35 22q-4 46 21 65t56 29 58 22 27 42q0 32-2 59t-6 61h-2q-2 0-4 2-18 0-33-8t-30-19-30-19-35-8q-28 0-54 18t-26 52zm338 4q0-18 2-38t5-34 9-10l62 36v134q0 10-14 10l-4-2q-6-4-30-16t-30-16v-64z"/><glyph unicode="$" horiz-adv-x="684" d="M20 924q0 60 30 119t64 105q8 10 30 37t46 56 45 56 31 37q0 6 2 22t3 33 2 33 1 22v26q2 16 7 55t10 84 10 84 7 55q6 26 22 55t44 29q26 0 43-15t27-35v-48q0-70-12-140t-12-140q32 0 59 12t61 12q32 0 53-18t21-48q0-24-6-33t-17-12-25-3-30-4q-10-2-31-10t-42-20-37-26-16-30V946l8-8q24 0 60-4t71-15 62-31 35-52q2-4 2-25v-27q0-44-22-85t-54-79-69-71-67-59v-60l60-370q0-10-6-20t-16-19-20-15-16-6q-24 0-44 8t-36 36q-2 8-6 28t-10 42-10 42-6 28v10l-7 49-11 74-11 74-7 47q-6 6-21 8t-31 4-28 5-12 11q-24 14-28 29t9 27 40 18 63 2q0 22 1 58t0 75-5 76-12 61q-22-4-63 3t-81 21-71 36-31 52zm154 46q0-12 8-17t18-6 22-1h20q4 0 14-1t10 9v164q-12 0-27-18t-30-42-25-49-10-39zm244-262q2-6 4-19t4-13h10q2 0 25 22t35 36q8 12 20 27t12 33v8q-6 0-19 1t-28 2-28 3-17 4h-6q-8 0-12-10v-94z"/><glyph unicode="%" horiz-adv-x="890" d="M36 1022v8q0 30 22 56t53 44 65 28 60 10q32 0 54-15t36-38 19-52 5-57q0-44-9-88t-29-79-55-57-85-22q-40 0-61 24t-32 57-15 69-10 60q0 2-3 10t-6 17-6 16-3 9zm138-84q4-12 10-12t11 4 9 11 4 9q0 12-6 21t-13 11-12-8-3-36zm32-878v50q0 20 7 51t3 49l134 558q44 114 82 229t104 219q20 16 40 26t44 10q16 0 34-5t18-27q0-40-18-64t-34-58q-30-66-52-127t-40-121-36-123-40-135v-8l-54-186h12l110 194q0 40 22 54t56 14h25l23-8q4-4 21-23t21-21q40-22 72-26t54-13 33-35 11-88q0-34-10-68t-29-62-47-46-64-18q-42 0-71 23t-47 57-29 75-17 75h-16q-2 0-11-11t-19-26-21-30-17-25q-18-34-31-99t-30-130-46-114-81-49q-22 0-42 20t-24 42zm486 413q-2-11 20-35 10-10 23-2t5 24q0 4-13 16t-23 14q-10-6-12-17z"/><glyph unicode="&amp;" horiz-adv-x="696" d="M86 590q-22 58 0 110t82 72q8 4 24 7t36 6 38 6 30 7q-34 42-81 73t-101 83q-4 4-7 10t-5 8q-32 54 22 70 18 16 57 33t87 30 101 18 99-2 81-30 47-67q18-22 2-39t-36-25q-26-10-51-9t-52 3-55 2-60-10l-12-6q30-24 67-47t72-46 64-45 45-44q12-18 7-38t-27-26q-36-12-66-16t-60-6-60-5-66-15q-34-16-24-44t42-58 74-55 74-33q18-6 62 0 2 0 19 2t19 4q20 0 27-7t17-21q6-10 1-27t-14-35-20-32-21-16q-52-16-112-4-114 20-197 69T116 536q-6 6-17 28zm150 772v19l1 20-1 31q2 26 20 45t44 23q52 8 75-17t33-65q2-20 6-58t3-77-12-68-37-29q-34 0-56 16t-37 38-23 47-14 47q-2 18-2 28zm52-1204q4 26 21 44t43 24q50 8 76-18t32-68q4-18 11-56t8-76-8-67-35-29h-52l-34 4-21 16-11 34q-8 40-14 96t-16 96z"/><glyph unicode="'" horiz-adv-x="258" d="M46 978v32q0 14 3 50t6 76 5 76 2 52q14 50 64 50 44 0 62-25t18-65q0-12-1-47t-5-80-9-94-13-89-20-66-26-24q-28 4-44 21t-26 39-13 47-3 47z"/><glyph unicode="(" horiz-adv-x="514" d="M34 398q-4-24 0 9t13 100 24 158 34 184 41 177 48 140q26 70 67 133t87 121q10 14 22 24t32 10q28 0 50-21t22-53q0-26-13-54t-31-55-37-52-29-45q-34-72-69-175t-63-211-43-207-5-161q0-78 18-151t86-125q8-6 27-20t40-28 40-27 27-17q0-4 1-10t1-8q0-22-19-28t-37-6q-74 0-135 38t-104 96-68 128-27 136z"/><glyph unicode=")" horiz-adv-x="540" d="M34 52q0 16 21 38t31 36q40 58 76 105t68 107q12 26 22 59t26 57q30 106 46 204t16 206q0 120-18 242t-52 238q-6 24-22 46t-32 43-28 41-12 44q0 22 20 42t44 20q38 0 70-25t58-61 44-75 26-67q16-50 27-108t19-119 11-121 5-114q0-118-15-232t-55-228q0-4-9-23t-19-43-21-48-17-38q-12-22-40-69t-63-94-73-82-68-35q-10 0-25 3t-29 9-23 16-9 26z"/><glyph unicode="*" horiz-adv-x="874" d="M28 472q0 18 7 32t1 32q8 2 28 5t24 3h68q20 4 49 11t57 13q-34 34-77 62t-73 68q-38 52 14 96 16 10 31 15t27 21q6-4 21-19l19-19q0-2 6-9t13-16 13-17 8-8q14-16 38-37t46-39l26 284q4 34 16 40t40 6q4 0 15-1t15-1q16-12 28-34v-72q0-58-3-114t-5-114l236 154q28 16 41 10t29-28q4-4 9-13t7-11q4-24-10-40-6-6-28-24t-28-22q-10-8-19-14t-19-12l76 12q16-4 29-6t23-7 16-16 6-33v-6q-18-18-38-25t-41-12-41-11-40-20l-140-34 194-174q12-28 20-50t-24-48q-2 0-4-2-24 2-43 13t-35 25-34 27-40 21l-102 78q6-36 11-72t5-70q0-38-26-61t-62-23h-6l-44 42q2 46 2 95t-8 97q-28-28-57-56t-59-54q-30-22-64-17t-56 35l-6 6 8 58q14 10 27 20t27 20q-40-10-76-10-68 0-68 70z"/><glyph unicode="+" horiz-adv-x="874" d="M28 472q0 18 7 32t1 32q8 2 28 5t24 3h68q20 4 52 11t62 14 51 13l21 6 32 362q4 34 16 40t40 6q4 0 15-1t15-1q16-12 28-34v-72q0-68-4-134t-4-134h8l286 52q16-4 29-6t23-7 16-16 6-33v-6q-18-18-38-25t-41-12-41-11-40-20l-200-48q-10-4-10-11v-15q0-52 9-105t9-107q0-38-26-61t-62-23h-6l-44 42q4 58 2 118t-18 118h-8q-58 0-117-21T96 402q-68 0-68 70zm246 116v8h16v-8h-16z"/><glyph unicode="," horiz-adv-x="266" d="M36-20q2 8 7 41t11 72 12 72 6 41q2 14 4 31t8 31 18 23 32 9q38 0 61-17t23-57v-16l-2-12q-2-12-7-41t-11-61-10-61-6-39q-14-18-17-46t-7-53-16-44-46-19q-18 0-29 11t-18 27-10 34-3 32v42z"/><glyph unicode="-" horiz-adv-x="818" d="M108 506q0 34 24 49t52 21l502 50q34 0 64-12t30-52q0-10-13-22t-29-22-34-17-26-3l-494-54q-26 0-51 17t-25 45z"/><glyph unicode="." horiz-adv-x="258" d="M44 76q0 28 21 52t49 24q34 0 55-18t41-40v-6q0-34-23-61T126 0q-26 0-54 24T44 76z"/><glyph unicode="/" horiz-adv-x="532" d="M40-58q10 96 26 181t34 181v16l286 1478q6 34 22 47t50 13h4q38-20 49-33t11-53q0-24-6-50t-10-50q-2-6-7-28t-11-48-11-48-7-28v-8L244 380q-18-114-39-227T168-74q-6-24-25-35t-41-11-42 15-20 41v6z"/><glyph unicode="0" horiz-adv-x="672" d="M52 358q0 120 14 241t28 237q0 16 8 24t16 18q0 2 4 8t4 8q30 72 98 121t146 49q44 0 74-11t52-32 40-50 40-65q16-36 26-82t15-94 7-95 2-87q-4-66-15-139t-35-142-65-127-105-96q-26-16-57-30T288 0q-70 0-115 35t-72 89-38 117-11 117zm148 10q0-16 1-34t1-34v-22q2-14 7-36t14-44 23-38 36-16q16 0 31 8t25 16q52 40 83 96t47 119 20 128 4 125v26l-1 37-1 37v24q-2 22-10 59t-22 72-37 61-55 26q-18 0-42-11t-45-27-36-37-15-41q0-16 9-26t9-30v-22q-2-6-7-35t-11-61-11-61-7-35q-8-50-9-102t-1-100v-22z"/><glyph unicode="1" horiz-adv-x="282" d="M46 319v85q0 156 17 309t25 309q0 18-1 47t5 56 22 44 50 15q32-4 50-26t28-52q-20-202-37-403t-17-407q0-48 5-96t5-96q0-16-2-34t-8-34-19-27-33-11q-36 0-54 24T54 76q-4 46-5 86t-2 79-1 78z"/><glyph unicode="2" horiz-adv-x="954" d="M36 680v4q12 26 34 51t48 48 52 43 46 36q28 24 64 50t75 49 81 38 84 15q72 0 100-45t28-115q0-132-45-259T494 354v-8l-52-92h18q84 48 181 81t191 55h8q36 0 60-12t24-56q0-30-16-52-16-4-41-12t-43-4l-196-70L308 16Q276 0 244 0q-28 0-54 23t-26 53q0 16 3 24t15 26q54 84 109 169t100 174 73 183 28 196q-60 0-106-36t-88-80-82-80-86-36q-14 0-30 3t-30 10-24 20-10 31z"/><glyph unicode="3" horiz-adv-x="798" d="M28 878q0 28 30 57t78 54 107 47 116 38 105 25 74 9q74 0 74-78v-26q-34-90-82-161t-96-151h20q28 0 51 4t51 4q80 0 126-51t66-125q0-10 1-41t1-39q0-134-56-229T528 44Q472 0 406 0q-32 0-57 23t-25 53q0 18 3 29t23 21q2 2 10 3t17 3 16 3 9 1q12 2 27 11t30 20 27 21 18 14q58 50 79 110t21 134v28l-1 37-7 34-18 21q-4 2-19 2h-19q-46 0-87-19t-80-42-80-42-89-19q-32 0-50 21t-18 51q0 32 38 86t86 114 94 119 64 101h-16q-46 0-84-19t-72-41-67-41-69-19q-26 0-54 13t-28 47z"/><glyph unicode="4" horiz-adv-x="820" d="M24 532q2 12 20 27t24 25q2 4 12 21t21 37 21 37 14 21q0 8 8 8l186 322q0 2 3 4t5 4q6 8 20 26t30 38 30 38 20 26q10 14 22 16t28 2q14 0 30-4t30-12 24-22 10-32V690q36 0 65 19t67 19q70 0 70-74 0-16-5-32t-21-22l-176-68v-6q0-112 21-222t21-218q0-32-16-59T558 0q-12 0-23 1t-21 7q-10 8-26 24t-16 20v16l-42 422h-8q-42 0-83-8t-82-18-82-18-83-8h-8q-22 16-43 40t-17 54zm236 68q8 0 27 4t41 8 41 7 29 5q2 2 11 5t13 5q2 0 5 4t3 6v250l-8 12-162-290v-16z"/><glyph unicode="5" horiz-adv-x="854" d="M46 382q0 38 6 76t2 74l50 312q14 26 17 50t8 43 20 30 53 11q30 0 45-12t35-36h12q38 0 75 10t73 6l270 50q2 2 13 2h15q34 0 55-18t21-56q0-52-52-62l-244-50h-18q-64-10-121-18t-115-26q-4-2-10-4t-6-4l-44-254v-32q72 46 146 77t162 41q24 0 51-5t51-17 40-31 16-49q0-40-13-78t-34-75-47-71-50-64q-10-10-32-35t-48-53-49-54-33-36q-10-6-31-15t-35-9q-28 0-49 22t-21 48q0 20 9 36t22 29 28 25 27 24q8 10 26 32t37 45 35 43 20 26q16 22 38 54t30 62q-2 0-8 1t-8 1q-36 0-77-24t-69-44h-8q-26-18-48-36-20-16-42-32t-36-26q-22-16-36-20t-50-4q-24 0-38 12t-22 30-11 39-3 39z"/><glyph unicode="6" horiz-adv-x="652" d="M46 336v12q38 194 65 316t44 193 27 103 14 46q8 20 18 43t22 41 30 30 46 12q26 0 44-22t18-50q10 20 2-4t-25-80-41-135-46-166-40-176-22-165q0-10 1-40t1-40q4-12 9-28t17-24q4 8 15 27t23 41 23 41 17 29q14 24 42 58t61 65 69 54 66 23q24 0 40-11t25-29 13-40 4-42q0-66-23-130t-64-118-96-94-121-58q-6-22-21-53t-15-53q0-18 5-35t5-35q0-34-22-56t-56-22q-26 0-42 12t-25 30-12 39-3 39q0 42 13 81t13 79q0 14-8 25t-20 22-23 22-17 23q-28 46-39 97T46 336zm343-128q-3-18 7-21t28 5 32 20q34 30 41 62t-2 48-29 6-44-64q-30-38-33-56z"/><glyph unicode="7" horiz-adv-x="724" d="M16 1022q-4 30 18 46t52 23 60 9 46 6q54 10 101 21t92 24 91 29 98 36h12q34 0 62-22t28-58v-22L574 558q-2-8-4-36t-5-62-5-66-2-48-1-58-1-89 1-89 1-58q-16-34-31-43t-51-9q-40 0-59 29t-19 63q0 74 5 148t3 150l84 588v24q0 4 1 15t-9 13q-80-26-178-55t-186-29H76q-22 12-39 30t-21 46z"/><glyph unicode="8" horiz-adv-x="660" d="M34 820v4q0 56 32 111t82 99 107 71 109 27q52-8 94-33t66-62 28-82-20-93q-4-14-17-50t-28-77-29-77-20-50q-6-18-7-16t-1-14v-12q30-38 62-75t58-76 43-82 17-93q0-46-21-89t-55-76-78-54-88-21q-46 0-79 18t-55 47-32 67-10 78q0 84 21 152t49 144v26q-30 24-61 51t-61 59-55 65-41 69q-4 4-6 22t-4 22zm142 20q0-16 20-44t46-57 50-50 34-21h4q34 58 63 141t29 153v16q-4 2-20 6t-22 4q-36 0-60-4t-42-14-35-28-41-48q-8-10-17-24t-9-30zm138-622q0-34 5-63t45-29q20 0 42 13t39 33 26 44 3 46q-4 14-17 38t-28 49-31 46-26 27q-14-10-25-37t-18-59-11-62-4-46z"/><glyph unicode="9" horiz-adv-x="644" d="M22 966q-2 52 16 112t51 118 77 106 95 75 107 28 112-37q18-16 24-42t10-42q22-8 49-28t27-48q0-148-16-295t-26-297q-10-142-15-282T514 52q-14-28-30-40T434 0t-59 27-21 59q0 2 2 17t5 32 6 31 3 18q0 2 1 18t3 37 3 42 1 33q10 158 23 317t13 319v38q-30-24-54-57t-50-65-58-55-76-27q-42-4-71 11t-48 41-27 60-8 70zm142-20h12l52 50 162 228v10q0 10-7 34t-17 24q-42 0-79-43t-64-100-43-115-16-88z"/><glyph unicode=":" horiz-adv-x="270" d="M44 308q0 28 17 55t45 27q18 0 39-8t39-22 28-33 8-41q-4-28-30-44t-48-16q-36 0-67 21t-31 61zm8 408q-4 40 32 58t68 18q8 0 19-9t22-22 19-26 8-19q8-28-18-47t-50-19q-28 0-62 16t-38 50z"/><glyph unicode=";" horiz-adv-x="270" d="M-38-380q0 4 1 12t1 10L52 36v130q0 2 14 15t22 17q2 0 7 1t7 1q50 0 74-31t24-75q0-50-10-106-4-18-9-47t-10-56-9-47l-4-20-10-16-52-228q-4-20-21-33t-39-9q-74 8-74 88zM70 482q0 10 5 25t14 29 21 24 26 10 30-10 29-24 22-30 9-28v-26q-4-8-21-23t-23-19h-8q-36 0-70 16t-34 56z"/><glyph unicode="&lt;" horiz-adv-x="906" d="M26 322q0 28 17 45t35 39q6 8 23 30t36 46 36 45 23 31q6 20 21 33t23 33l210 330q12 18 19 41t16 43 23 33 42 13q44 0 71-32t31-72q2-4-1-13t-7-13L392 558q-10-22-30-45l-40-46-35-47-15-46q130 0 254-7t254-21q6-12 19-19t25-14 21-17 9-30q0-80-82-80-28 0-45 10t-41 14q-76 16-152 22t-154 6q-6 0-27-1t-47-3-47-3-27-1h-60q-24 0-50 3t-47 12-35 27-14 50z"/><glyph unicode="=" horiz-adv-x="840" d="M34 580q-4 38 18 53t50 23q44 16 91 30t114 29 161 36 232 51h10q8 0 19-4t22-11 19-15 8-16q0-26-14-49t-36-33q-144-52-285-83t-285-79q-14 0-35 4t-40 12-33 21-16 31zm92-240q42 44 97 70t116 46 124 38 121 46q44 14 67 19t57 5q26 0 58-10t36-40q-2-8-11-31t-13-27-19-14-23-14q-64-10-127-35t-126-53-126-51-127-29q-34 0-69 21t-35 59z"/><glyph unicode="&gt;" horiz-adv-x="862" d="M32 1064q-2 14 11 25t30 18 35 10 24 3q78-46 161-78t168-61 171-57 170-66q14-18 20-29t6-27q0-40-27-68t-49-60q-48-68-89-131t-83-124-91-121-111-122q-4-6-23-18t-27-16q-16-4-36 0t-38 14-30 26-12 36q0 14 9 28t22 26 27 22 26 16l320 448q8 12 8 22v6L76 996q-4 0-11 9t-14 21-13 23-6 15z"/><glyph unicode="?" horiz-adv-x="732" d="M22 1036q0 12 3 15t15 11q58 46 114 85t115 68 124 46 141 17q64 0 111-30t47-100q0-46-16-94t-40-94-53-88-53-78q-16-24-42-54t-50-63-42-66-18-59q0-16 14-24t14-24q0-36-22-51t-54-15q-52 0-87 37t-35 87v4q12 54 38 101t57 90 65 85 62 88q4 6 15 25t23 42 23 45 15 32q10 22 8 28t-2 26q-80 0-145-31t-131-75q-30-20-54-44t-62-24q-30 0-64 23t-34 59zM342 88q0 28 24 54t56 26q38 0 74-21t36-67q0-42-26-57T446 8q-38 0-71 19t-33 61z"/><glyph unicode="@" horiz-adv-x="1524" d="M44 380q0 74 32 175t86 210 128 215 156 190 170 136 172 52q64 0 105-39t66-102 37-140 16-154 3-145-1-110q0-46-8-98t-30-97-59-74-93-29q-76 0-112 45t-60 109q-8 18-8 26t-10 26l-5-5-3-5q-18-34-39-71t-48-69-62-52-79-20q-42 0-73 31t-31 71q0 60 24 118t61 110 80 99 81 87q28 28 73 52t79 24q44 0 72-26t56-58q0-6 1-26t1-24q0-58-10-113t-10-113q0-14 5-38t21-34q22 18 33 45t15 58 4 61v54q4 66 8 140t-3 138-34 112-83 62q-58 0-123-44t-125-108-109-134-73-122q-6-14-22-52t-34-81-33-82-21-55q-6-20-10-34t-6-27-2-26v-31q0-72 29-121t76-81 107-46 122-14h40q14 2 41 8t54 11 48 9 25 6l480 230q22 10 42 31t41 42 43 37 46 16q26 0 59-14t33-46q0-18-11-35t-28-33-34-29-29-21-32-22-41-28-37-24-18-10q-16-10-57-30t-88-43-90-43-61-28q-24-6-45-20t-47-22q-90-28-172-48T528 0q-82 0-167 24T205 96 89 215 44 380zm408 193q0-15 9-15t26 12 37 34q60 62 69 90t-9 26-53-29-65-71q-14-32-14-47z"/><glyph unicode="A" horiz-adv-x="1018" d="M50 86v40q0 120 16 238t28 236q0 6 2 27t5 45 6 45 3 27v8l84 624q-1 8-1 15 0 31 14 56 17 31 63 31 12 1 23 1 35 0 60-14 33-19 55-49t36-66 30-66q10-28 25-66t36-96 50-142 67-204l8-8q14 8 53 26t82 38 81 38 54 24q2 4 11 7t13 5h4q20 0 30-15t10-29q0-22-10-38t-23-29-28-25-23-26L716 644q-8-10-8-16 0-16 17-50l27-54q6-12 20-44t30-66 31-65 21-43v-6q0-72-72-72-22 0-46 5t-36 29L566 548h-18q-76-58-162-114t-176-96q-14-72-17-146-1-32-1-63 0-42 2-85-16-22-32-33T118 0 76 13 56 45t-6 41zm178 428q60 24 117 64t109 74q6 4 15 8t17 10 20 14v16l-184 524-8 8q-6-12-15-68t-20-145-24-205-27-248v-52z"/><glyph unicode="B" horiz-adv-x="1030" d="M44 806q0 22 11 45t27 44 33 38l29 29v304q0 26 26 39t48 13q56 0 72-26t18-59 1-63 21-38q36 18 68 38t63 36 64 26 71 10q18 0 39-4t39-13 30-24 12-39q0-44-12-81t-30-72-38-69-36-70q8 0 30-3t46-5 46-5 30-3q32-6 75-20t80-38 63-57 26-75q0-46-17-92t-41-82q-8-12-24-34l-32-44-29-39-15-19L456 24Q436 8 422 3t-34-5q-14 0-41 3t-55 9-49 16-23 26l-44 338v16q-4 84-9 176t-15 178q-8 0-26 1t-36 7-32 15-14 23zm278-30h8l12 14q12 14 29 33t33 39 26 32q6 10 23 32t21 28q6 12 16 30t19 35 16 30l7 13v20h-8q-4-2-14-8t-20-14-20-14-14-8l-21-16-46-36-46-37-21-19V776zm8-252l42-348h2q10 0 30 6t26 12q8 6 27 22t41 34 41 34 29 22q34 28 81 68t89 85 71 93 29 94q0 30-20 47t-49 27-60 13-53 3q-42 0-78-14t-68-36-61-49-59-53q-6-6-17-12t-21-14-17-16-5-18z"/><glyph unicode="C" horiz-adv-x="862" d="M46 258v48q24 200 38 308t20 160q8 60 8 70 18 62 38 134t53 134 85 104 134 42q36 0 65-5t55-17 51-29 53-41q20-18 23-22t3-24q0-26-18-50t-52-24q-28 0-46 13t-35 30-36 30-49 13q-32 0-56-17t-41-43-26-58-13-60l-94-640q0-4-1-19t-1-23v-35l4-42 14-36 30-15q12 0 22 8 96 64 165 149t131 181q2 4 11 19t18 32 17 34 12 25q12 26 18 54t15 52 27 39 56 15q28 0 54-24t26-56v-4q-50-144-129-266T520 160Q460 88 382 44T208 0h-10Q108 34 77 101T46 258z"/><glyph unicode="D" horiz-adv-x="1046" d="M36 978v60q10 6 17 17t11 19l202 100 8 10q-1 16-1 30 0 36 7 60 10 34 70 34 16 0 35-6t36-16 26-26 5-36q100-4 198-15t176-48 127-109 49-198q0-114-44-228T832 430L452 52q-28-28-47-40T350 0q-30 0-49 17t-19 47q0 18 13 32t13 30q0 4-8 10t-10 8q-20 30-22 68t-2 72q0 184 2 364t2 364q-20 0-38-9t-38-20-42-20-48-9H72q-4 6-20 11t-16 13zm408-734l16 10q2 2 15 13t29 26 32 29 26 24q46 48 97 102t93 115 69 128 27 141q0 70-26 119t-69 80-101 45-124 14q-6 0-35-3t-41-13V244h-8z"/><glyph unicode="E" d="M46 1158q0 64 26 90t92 26q14 0 23-12t21-12h8q6 2 18 5t16 3q168 72 262 112t142 58 65 20h8q12 0 21-4 24-4 33-15t9-33q0-20-6-40t-28-30l-262-126-8-8-220-94q-12-4-14-20t-2-26q0-16 4-58t8-87 9-80 7-35h2l2 2q22 16 70 55t98 79 88 71 40 31q22 0 40-22t18-46-10-54-32-46L282 584v-10l-1-22-1-25v-21q0-72 10-143t10-143h8q2 0 18 16t24 26q4 6 19 26t51 66 96 122 154 192q8 8 23 24t19 16q6 6 25 5t27-5q10-4 26-22t16-34q0-24-25-63t-59-81-68-81-52-63q-28-44-67-107t-85-120-101-98T232-2q-30 0-43 10t-33 36q-20 80-30 151t-14 151q-1 23-1 42.5t1 36.5v11q0 28-8 62-2 8-9 12t-14 10-13 15-6 29q0 16 7 28t14 23 14 24 7 31v30q0 20-4 68t-8 102-7 102-5 66q-2 34-18 60t-16 60z"/><glyph unicode="F" horiz-adv-x="854" d="M52 1076q0 42 15 58t59 16q34 0 57-17t45-43h10q14 8 52 30t81 46 82 45 55 31q34 18 66 30t70 12q20 0 30-6t10-32v-4q-8-40-28-65t-47-43-56-31-55-29q-60-42-101-68t-70-42-46-27-27-23q0-6-1-23t-1-21q0-60 2-120t24-116l466 220q14 6 21 7t21 1q8 0 26-6t18-16q0-46-31-82t-75-66-92-52-84-40q-8-4-18-6t-14-10L306 474q-10-6-11-11t-1-15q0-4 1-10t1-8l42-328q1-8 1-16 0-37-24-60-29-28-71-28-8 0-20 3t-24 8-21 14-11 21l-50 394q0 8-8 14t-17 12-17 14-8 20q0 18 5 30t12 23 12 22 5 27q0 60-8 119T77 838 60 957t-8 119z"/><glyph unicode="G" horiz-adv-x="1002" d="M36 348q0 86 28 175t68 165q8 14 25 41t36 55 35 51 22 29l218 230q44 46 111 67t125 25q7 1 14 1 21 0 36-10 20-13 20-43 0-24-19-37t-45-21-54-15-44-17q-106-86-192-193T266 628q-22-70-46-134t-24-140q0-6 1-27t1-27q20-48 61-88t97-40q28 0 58 18t46 44q8 10 28 40t41 64 40 64 25 42 17 31 20 37 16 33 7 17v8q-28-8-56-13t-58-5q-18 0-39 3t-40 11-32 22-13 38q0 10 2 24t8 22q16 14 43 21t58 10l62 6 57 13q22 8 52 21t63 26 67 23 62 14q6 0 17-4t23-10 20-13 8-13q0-44-24-61t-62-41q2-28 2-56 0-52-7-104-11-80-11-160 0-96 4-196t20-194q2-4 6-21t9-35 9-34 4-20v-4q0-28-21-55t-49-27q-30 0-57 20t-33 48Q718-54 705 81t-17 253q-18-10-30-31t-21-44-19-46-24-39q-46-52-100-95T366 36q-60 0-119 26t-106 69-76 99-29 118z"/><glyph unicode="H" horiz-adv-x="734" d="M44 594q0 18 13 30t13 34q0 156-9 309t-9 307v34q14 20 28 24t38 4q58 0 74-35t18-85l18-532q2-6 7-19t15-13q14 0 52 7t80 16 76 20 40 21q0 14 1 50t1 50q0 84-2 166t-8 166q0 14-6 67t-12 115-11 115-5 67q-2 2-2 13v15q0 26 19 38t41 12q48 0 71-30t33-74q2-22 6-74t10-112 11-113 7-73v-32q0-10 3-39t5-39V184q10-34 13-56t3-52q0-24-13-51T618-2q-28 0-51 14t-40 36-27 49-10 55v412l-228-50h-6q0-82 3-161t3-163q0-24-1-47t-7-42-21-30-45-11q-56 0-78 58-10 94-12 185T86 490q-4 28-23 54t-19 50z"/><glyph unicode="I" horiz-adv-x="308" d="M46 886v246q16 22 29 29t37 7q32 0 61-18t33-52q8-56 9-113 0-28 .5-56.5T215 871l-2-114v-23q0-45 3-90 8-136 25-282t17-282q0-40-16-60T180 0q-38 0-58 26T93 88t-11 73-2 59q0 16-3 67t-6 120-7 146-8 146-7 120-3 67z"/><glyph unicode="J" horiz-adv-x="646" d="M20 510q0 26 14 50t46 24q18 0 30-12t21-29 17-34 18-27q14-12 49-52t71-84 66-81 34-45q4-4 12-13t12-13l8 8q0 2 1 20t1 40v82q0 172-5 341t-5 341v282q6 28 25 41t45 13q28 0 55-12t35-42q-1-67-1-133 0-182 8-359 11-242 11-490v-85l-9-109-34-94-73-40q-4 0-11 1t-9 1q-10 4-36 20t-30 24L56 414q-24 26-30 47t-6 49z"/><glyph unicode="K" horiz-adv-x="1184" d="M52 1208v4q0 24 20 50 17 23 39 23 3 0 7-1 6 0 17-3t25-8 25-11 17-12q4-4 14-24t12-26q15-55 15-121v-36q0-55 3-105 2-22 5-69t8-94 11-82 12-35l4 2q102 102 179 211t127 243q0 4 4 16t8 25 7 26 5 19l2 12 6 25 9 25 11 12h92q14 0 23-10t15-24 8-27 2-21q0-2-3-9t-5-9v-16q-16-56-34-102t-39-90-47-88-56-94q-10-16-32-35t-28-41L356 490l-26-52h8q86 22 165 32t157 14 158 4 170 2q2 0 14 1t24 3 23 3 15 1h18q22 0 49-8t35-36q3-8 3-16 0-15-10-31-15-25-35-35-6-2-21-4t-31-5-30-6-20-3h-26q-42-2-105-2t-121-2q-68-2-144-4l-296-60v-12q0-44 13-86t13-86q0-40-20-71T270 0q-24 0-52 26t-34 50l-32 210q-22 10-41 32t-19 44q0 28 17 48t17 48q0 46-11 92-7 30-7 60 0 17 2 34z"/><glyph unicode="L" horiz-adv-x="894" d="M56 1284q0 28 17 48t45 20q48 0 72-20t34-50 10-68v-74q0-8 1-40t3-69 3-69 1-40v-66q0-130-4-258t-4-260v-84q0-10 3-27t5-17h16l474 188q16 14 28 15t28 1q10 0 26-1t31-6 26-14 11-27q0-46-50-80-64-34-132-63t-138-47l-10-8q-96-26-179-76T200 0h-18q-54 0-80 36t-34 85q-6 39-6 81v21q2 53 2 87 0 154 5 306t5 308q0 90-9 180t-9 180z"/><glyph unicode="M" horiz-adv-x="1170" d="M50 946v57l1 87 1 86v56q8 32 24 51t50 19 60-21 42-49l288-556q2-4 14-24t18-28q2-2 6-4t4-4l8 18 170 598q18 28 27 63t20 69 28 64 51 50h16q54 0 80-31t36-76q9-41 9-85v-40q0-30 1-54 0-14 3-54t7-94 8-115 7-115 6-94 3-52v-8q2-18 8-60t13-89 13-89 10-58q2-10 7-30t12-43 13-43 10-28q-8-46-23-71t-65-25q-6 0-18 1t-14 1q-6 4-23 20t-19 22l-32 110-60 456v18q-2 36-2 77t-1 83-5 84-16 78l-10-12-144-580q-2-22-4-47t-10-48-24-39-46-18q-12-2-26 4t-28 16-25 23-13 25L262 802l-42 84V714q0-122 5-239t5-239v-35l-1-53-1-53V60q-8-24-23-42T162 0q-38 0-59 13T68 60q-4 222-11 443t-7 443z"/><glyph unicode="N" horiz-adv-x="890" d="M46 76v174q0 122 5 245t11 246 9 246q1 53 1 105 0 70-2 140 6 22 22 33t38 11q42 0 64-15t32-41 12-58l4-64q24-44 57-85t59-83q0-2 3-9t5-7q12-18 31-47t37-56 31-47l13-20 8-10 116-168q8-8 14-8h4q-26 212-42 433t-16 437v100q16 26 54 26t56-18 24-45 6-58 2-57q0-2 2-7t5-22 6-52 8-97 10-156 13-230v-36l68-446q2-16 17-49t15-51q0-42-24-68t-68-26q-6 0-16 5t-20 11-19 13-13 11L366 634q-2 0-4 7t-4 11q-12 18-32 45t-38 54-32 47-14 22l-10 8q-10-190-16-383-3-96-3-192.5T216 60q-4-24-25-42T148 0q-40 0-63 21T46 76z"/><glyph unicode="O" horiz-adv-x="660" d="M43 547q1 77 4 169t14 186 32 181 55 151q12 54 58 75t130 25q54 0 92-28t65-69 47-89 36-86v-10q14-40 21-119t10-166 3-167V478q0-60-16-143t-51-157-91-126T318 0q-66 0-117 34t-86 87-53 115-18 118q1 6 1 22t-1 42q-1 35-1 80v49zm158 2q3-153 37-329 4-22 23-45t45-23h16q84 76 110 175t26 209q0 26-2 80t-7 121-13 141-20 139-28 113-38 66q-2-2-5-8t-3-8q-42-52-76-142t-51-213q-14-105-14-231v-45z"/><glyph unicode="P" horiz-adv-x="1052" d="M36 1018v4q0 2 2 6l4 8q2 6 4 10l224 196v110q0 20 24 31t40 11q26 0 48-13t44-13q20 0 36 12t32 22q76 46 147 70t159 24q38 0 91-7t102-25 83-50 34-82q0-90-36-172t-100-146q-84-80-157-143T654 744q-2-2-4-5t-4-5L452 600q-10-8-10-29v-27q0-58 7-115t15-115 15-116 7-116q0-32-15-57T418 0q-28 0-59 23t-35 53l-42 322q1 16 1 32 0 24-2 48-3 40-7 80-2 10-5 32t-3 26q0 2-4 9t-4 9l4 4q6 6 4 6v386h-8q-24-28-56-60t-76-32q-32 0-61 22t-29 58zm398-224l8-10 364 278q24 18 49 47t46 62 35 69 14 68q0 20-17 31t-39 16-45 5h-37q-90 0-165-41t-143-87q-4-4-16-11t-24-16-21-17-9-14V794z"/><glyph unicode="Q" horiz-adv-x="1038" d="M52 366q0 30 5 58t3 56q6 26 21 92t32 141 33 141 22 92q2 12 12 40t21 61 21 61 14 40q10 8 15 16t10 14 12 10 21 4q30 0 63-14t41-48q4-16 0-17t8-15q28 10 58 13t58 3q54 0 85-33t46-80 19-98 4-89q0-18-2-44t-4-54-3-55 1-45l-42-194q-2 0 15-20t27-32l11-11 18-18 17-18 10-11q4-2 7-8l5-10 412-430q2-2 8-14t10-18v-2q0-2 2-4 0-34-22-57t-52-23q-16 0-35 3t-29 13L644 160q-20 22-38 44t-40 40l-4 2q-8 0-31-33t-60-74-86-74-111-33q-60 0-102 34t-69 85-39 109-12 106zm168-56q10-42 26-82 4-8 11-26t17-18q18 0 43 19t49 46 40 56 16 49q0 26-17 42t-17 42q0 30 11 42t27 16 33 6 31 12q10 8 19 44t16 78 11 81 4 55v50l-2 57-7 57-15 52h-12q-40 0-73-22t-58-54-45-69-34-67q-4-10-12-28t-4-32l-58-318q-5-23-5-45t5-43z"/><glyph unicode="R" horiz-adv-x="1536" d="M50 858q0 24 11 41t23 32 23 32 11 41q0 10-2 37t-3 57-2 57-1 37v8q8 18 13 30t11 18 16 9 26 3q42 0 62-16t28-37 10-39 10-20l144 126h8q70 46 148 71t164 25q26 0 63-6t70-21 56-39 23-60q0-40-10-82t-27-83-40-78-49-63q-10-22-128-112T356 558l960-60q20-2 55-3t68-7 57-23 24-51q0-18-5-29t-12-18-16-13-17-16h-68q-40 4-83 10t-100 14-133 16-182 14-247 10-327 4q-2 0-5-6t-3-10q0-76 13-149t13-145q0-14-3-31t-11-32-20-25-30-10q-12 0-28 5t-31 15-27 22-14 28l-32 396q-12 26-19 42t-7 38q0 18 5 33t5 33q0 44-3 82t-7 84q-2 6-14 10t-26 11-25 21-11 40zm236 48q0-50 2-94t6-96h6q2 0 10 4t40 25 98 66 186 127q24 14 52 48t52 74 40 79 16 65q0 20-19 20h-33q-30 0-68-10t-91-40-126-86-171-150v-32z"/><glyph unicode="S" horiz-adv-x="1098" d="M32 712q0 20 8 44t19 48 23 44 22 32q32 40 84 72t112 56 121 42 111 32q56 4 113 27t113 31q28 0 46-22t18-46q0-34-13-51t-34-26-47-14-52-11l-44-11-56-15-50-14-26-8q-62-26-117-49t-96-47-64-51q-21-25-21-54v-7q20-28 90-42t165-24 200-20 193-30 146-54 60-92q0-22-9-52t-25-46q-50-56-119-116T754 127 589 41 422 0q-28 0-52 21t-24 51q32 44 71 66t80 36 82 27 81 43q22 12 62 36t79 53 68 57 29 48q0 2-2 2-4 0-4 2l-4 4q-10 4-32 10t-26 8q-258 30-415 53t-242 49-113 60-28 86z"/><glyph unicode="T" horiz-adv-x="898" d="M20 1018q0 22 15 43t37 29l322 102q6 22 23 45t45 23 47-14 43-22q18 2 60 12t89 21 89 21 58 14q24 4 36 10t38 6q34 0 70-20t36-60q0-26-18-45t-44-25l-380-96v-18q0-62 11-122 8-44 8-88 0-16-1-32l68-618v-44q0-24-1-49t-8-45-23-33-48-13q-24 0-51 20t-29 48l-76 794v16q-2 16-5 41t-6 48-5 39l-2 16h-16l-228-68q-10-16-33-16h-35q-28 0-57 25t-29 55z"/><glyph unicode="U" d="M78 358v52q2 16 5 48t8 73 9 86 9 86 8 73 5 48q-8 20-5 41t14 38 29 28 40 11q6 0 21-4t31-12 28-17 12-17v-76q-28-216-36-344-6-102-6-168v-31q2-71 12-97t20-36q24-10 47-5t55 37 77 99 109 179q4 6 9 22t7 22q-2 75-2 152 0 57 1 114 3 134 9 266 8 20 26 32t38 12q8 0 24-6t32-17 28-23 12-24V410q14-90 22-181t22-181q0-10 5-41t11-67l11-66 7-38v-24q0-72-78-78h-7q-29 0-50 29-23 33-37 86T637-32 622 96t-12 113-16 73q-22-42-53-94t-72-99-88-79-101-32q-68 0-108 40t-61 99-27 124-6 117z"/><glyph unicode="V" horiz-adv-x="1044" d="M22 1070q0 30 24 46t50 16q32 0 54-12t43-40 48-76 69-121 106-174 158-235q6-16 22-39t20-29l8 16 110 414 8 18 78 278q-1 8-1 15 0 27 17 49 22 28 56 28t69-23 35-61v-8L768 278q0-4-4-25t-8-46l-8-50-6-39q-2-18-3-39t-8-38-21-29-42-12q-48 0-72 26t-36 63-20 78-26 69L84 954q-22 16-42 52t-20 64z"/><glyph unicode="W" horiz-adv-x="1034" d="M28 1106q0 28 27 45t49 17q74 0 94-62l110-398q10 4 13 22t3 22q0 2 3 20t11 63 23 123 41 200q16 20 38 27t50 7q26 0 41-8t21-36l136-572q4-10 8-22t8-22q8 66 14 117t12 100 12 104 16 127 24 170 34 234q6 40 35 50t65 10q2 0 9-3t9-5q4-2 16-4t16-4q8-18 14-31t6-29q-4 20-14-18t-25-124-32-213-33-286-29-344T832 0q-6 0-20 2t-29 6-27 10-16 16L486 684l-8 8q-12-48-14-96t-4-98q0-16-1-54t-3-81-3-82-1-53q-6-24-26-42t-46-18q-10 0-25 3t-30 8-28 13-15 18L156 652l-92 362q-2 2-8 14t-12 27-11 29-5 22z"/><glyph unicode="X" horiz-adv-x="934" d="M36 920q0 22 11 39t31 28 44 11q34 0 54-12t34-40q34-72 68-138t78-132h2q12 14 23 42t24 82 33 138 52 210q4 18 25 35t37 17h8q28-6 44-9t24-10 11-23 5-46q-2-30-13-80t-26-110-33-124-36-119-32-97-22-58v-18l388-388q12-12 15-23t3-25q0-32-19-51T820 0q-28 0-59 15t-53 37L422 338h-16q-2-4-12-21t-14-23q-16-22-29-66t-31-87-42-76-58-33q-12 0-29 5t-31 14-24 22-10 27q0 28 13 48t13 46l126 260q2 4 5 14t5 14v8q-40 56-79 119t-71 117-55 95-31 57q-16 20-16 42z"/><glyph unicode="Y" horiz-adv-x="848" d="M12 1014q0 34 26 49t56 15q20 0 42-5t38-21q76-84 170-168t192-144l8 26 84 540q4 22 25 28t39 6q52 0 79-25t27-83v-4q0-2-3-10t-6-18-5-19-2-11q-6-24-16-93t-22-164-26-209-28-229-28-222-26-189q2-20 3-46t-7-50-25-40-47-16q-38 0-67 20t-41 56q2 10 5 38t8 59 9 58 6 39q10 90 25 179t15 179v30l-32 16q-8 4-40 26t-71 50-77 57-58 47q-12 8-39 31t-56 50-55 52-36 35q-16 16-30 37t-14 43z"/><glyph unicode="Z" horiz-adv-x="1496" d="M46 856q0 30 16 45t40 22 50 7h46l430 58q2 0 26 1t34 1h56l55-7 41-25 16-54q0-20-13-39t-27-29L486 306q-30-20-47-61t-39-69q4-6 10-7t12-1h12l938 128q26 0 59-16t33-50q0-30-12-49t-38-37q-52 0-139-3t-220-18-319-44T300 0q-6-2-14-2h-18q-14 0-35 4t-40 12-32 22-13 36v4q0 4 3 13t5 13q8 14 34 52t79 120 139 217 218 345h-56l-390-60h-20q-14 0-34 7t-38 18-30 25-12 30z"/><glyph unicode="[" horiz-adv-x="824" d="M44 1452v14q2 6 18 22t24 20q28 14 71 18t71 16q70 30 138 61t132 65q6 16 28 16h38q54 0 54-50 0-20-12-36t-29-28-36-21-33-15l-288-128-8-8v-68q22-336 45-670t13-672q-2-6 1-19t7-17h28l346 154q12-4 25 3t27 7q34 0 58-15t24-51q0-12-2-30T768-4L228-224q-6-2-12-2h-16q-64 0-85 42T94-84q0 82 8 162t8 162q0 74-6 148T94 536q-4 96-4 190t-4 190q-6 98-11 205t-15 199q-4 34-10 66t-6 66z"/><glyph unicode="\" horiz-adv-x="1126" d="M20 1758v2q0 34 29 53t57 19q34 0 55-15t37-43l854-1590q28-30 39-52t11-60q0-36-17-55t-57-19q-24 0-53 11t-41 35z"/><glyph unicode="]" horiz-adv-x="840" d="M24 1638q0 46 33 60t69 16q10 0 47 3t80 6 79 6 46 3q38 2 78 9t74 7q38 0 73-11t47-55q0-2-1-12t-2-22-3-22-2-12v-44q0-38 3-81t10-112 19-175 30-269 41-394 55-551q0-2 1-10t1-12q0-28-14-50t-42-22q-38 0-72 5t-72 5q-46 0-94-4t-94-14q-4 0-13-3t-19-6-18-5-10-2q-4 0-15 1t-23 3-23 5-17 7q-2 8-11 31t-13 29v4q0 24 28 38t65 22 71 10 46 2h35l57-1 56-2 34-1v16q-2 50-14 141t-32 250-50 399-68 588q0 4 1 17t1 28-1 28-1 19q0 8-1 22l-2 28-3 24-2 10-10 8-262-26q-2-2-11-5t-13-3q-16 0-42 3t-50 12-42 23-18 38z"/><glyph unicode="^" horiz-adv-x="708" d="M64 1350l166 292q2 4 7 17t11 27 12 27 8 19q8 16 29 19t41 3q16 0 28-3t24-15q6-10 23-35t37-52 37-52 23-33q2-2 8-9t6-9q6-8 20-29l30-45 30-46 20-30q6-10 7-15t1-15q0-22-18-30t-48-8q-26 0-47 11t-31 27l-134 198-8-6q-6-8-12-22t-21-42-41-73-72-117q-4-4-21-10t-23-6q-12 0-31 5t-35 13-25 19-1 25z"/><glyph unicode="_" horiz-adv-x="1192" d="M34 68v12q0 10 8 31t18 25l1010 196q4 0 19-1t19-1q8-14 17-22t17-17 13-22 5-37-24-42-46-22L160 0h-2q-48 0-70 16T34 68z"/><glyph unicode="`" horiz-adv-x="500" d="M173 1402q-1 14 11 30 22 30 50 38t60-14q30-42 62-66t59-47 43-51 10-76q-22-36-57-30t-71 31-69 58-49 51l-22 22-19 26-8 28z"/><glyph unicode="a" horiz-adv-x="798" d="M36 152q2 204 30 371t88 294 154 211 228 120q4 0 15 1t15 1h4q57 0 83-55 27-57 40-180t18-316 21-463q6-22 7-38t1-38q0-30-18-45T676 0q-58 0-82 32t-32 86q0 2-3 32t-8 69-9 79-6 66v8q-4 20-5 50t-5 58q-4 34-6 68l-8 10q-18-32-41-77t-49-96-57-102-64-93-69-71-74-35q-16 0-36 3T82 97t-33 20-13 35zm188 228q2 0 5 4t5 6q124 120 175 259t59 305q-54-40-106-108t-74-132q-10-30-22-82t-21-103-15-94-6-55z"/><glyph unicode="b" horiz-adv-x="768" d="M52 668v4q0 16 11 33t23 29v102q0 166-5 324t-21 326q0 26 18 39t38 13q12 2 23 2 39 0 62-28 29-36 41-98t12-139-3-149-3-128 14-76q26 10 27 9t0-2 4 4 37 29q44 34 103 43t111 9q122-18 170-75 43-51 43-122 0-9-1-18-6-83-57-184T572 407 404 195 226-2q-18 0-41 6t-43 18-34 30-14 42v522zm210-154q0-6 1-28t3-47 3-47 1-28v-21l1-32 1-32v-21q22 4 62 56t82 121 78 139 54 110q8 20 16 48t11 57q1 9 1 17 0 19-5 36-7 24-29 38-36 0-77-18t-80-46-70-61-45-63q-2-10-3-35t-2-53-2-54-1-36z"/><glyph unicode="c" horiz-adv-x="708" d="M46 240q-7 29-7 63 0 37 8 79 15 82 48 165t82 157 104 118 112 49h9q52 0 100-51 0-2 2-10t4-33 3-70 1-123q2-4 5-13t3-13q-6-22-23-41t-43-19q-34 0-55 11t-31 53q4 6 2 25t-7 43-9 48-4 38q-2 0-5-3l-5-5q-34-60-63-133t-44-148q-11-56-11-112 0-19 1-37 5-74 43-134 28 0 52 23t40 43q34 40 67 82t61 88q12 20 18 36t15 26 23 16 42 6q32 0 60-15t28-49q0-46-41-115T531 152 406 43 290-2q-48 0-93 19t-78 51-53 76-20 96z"/><glyph unicode="d" horiz-adv-x="824" d="M28 238q-1 9-1 19 0 42 14 95 17 66 50 137t80 138 101 116 113 73q35 14 71 15 24 0 48-7v28q0 52-3 107t-6 126-6 164-3 223q6 22 21 29t33 7q46 0 73-30t33-74q-3-54-3-111v-28q1-71 7-161t19-204 33-269 48-356 66-465v-68q0-12-9-18t-22-9-26-4-19-1q-30 0-64 17t-40 47l-74 534q0 6-5 7t-9 1q-2 0-27-44t-67-96-99-96-121-44q-88 0-147 54T28 238zm167-18q1-16 5-28t16-12h5q48 0 98 38 53 40 97 99t73 127 32 122v10q0 47-26 73-19 19-54 19-20 0-45-6-86-76-143-174t-57-216q0-6-1-21v-31z"/><glyph unicode="e" horiz-adv-x="890" d="M32 448q0 24 11 32t26 11 29 7 20 16q4 12 15 44t23 67 23 66 15 43q14 34 31 69t40 63 54 46 73 18q24 0 59-22t67-53 54-65 22-58q0-30-14-55t-35-46-45-39-44-34q-2 0-8-4t-10-6l-9-9-15-15-15-16-9-10q-6-6-23-19t-37-28-37-28-23-17l-8-16q-4-8-7-35t-7-61-7-69-3-57q0-2 2-4 4-4 6-4 16 0 30 14t30 20l320 296 82 126q10 14 39 31t59 18 53-19 23-78q-4-36-9-56t-17-36-34-33-60-48-94-81-136-130q-32-30-66-62t-71-57-77-41-84-16q-86 0-126 58T68 200q0 50 3 84t15 88q-22 20-38 35t-16 41zm278 190l132 86q8 7 8 19v5q-2 16-11 28t-23 15h-4q-12 0-22-15-6-8-21-32t-30-49-25-43q-6-11-6-14 0-1 .5-1t1.5 1z"/><glyph unicode="f" horiz-adv-x="586" d="M28 552q6 2 27 16t25 18q2 0 5 3l5 5v36q0 112-13 221t-13 219q0 72 3 150t26 144 73 108 144 42h38l41-5 33-18 14-37q0-36-17-47t-43-14-54-8-48-31q-4-4-10-21t-6-23q-4-14-8-38t-7-48-6-43-3-21v-15l-1-31-1-37V968l2-71 6-71 10-80h16l270 160q28 6 50 20t50 14 58-14 30-44q0-22-10-32t-16-28q-8-2-30-12t-30-14q-16-10-51-31t-73-44-70-43-42-26q-14-10-34-24t-39-29-33-26l-14-11v-20l52-170q-2-6-1-13t9-11l94-286q3-10 3-20 0-23-18-40-25-24-57-24-36 0-70 19t-44 57L140 416l-8 16q-15-3-28-3-25 0-41 10-25 15-35 38-9 21-9 42 0 26 9 33z"/><glyph unicode="g" horiz-adv-x="832" d="M34 172q0 50 21 126t57 161 84 169 100 152 106 111 104 43q20 0 53-7t64-21 54-32 23-42V670l130-944q0-80-3-153t-26-135-73-110-144-78q-12-6-50-10t-87-6q-25-1-51-1t-53 1q-55 2-100 9t-73 21-26 38q-8 22 1 50t37 36q46-20 96-26 30-4 60-4 21 0 41 2 51 4 101 16t96 28q46 38 64 99 15 50 15 129 0 18-1 37-4 105-27 262t-59 385q0 6 1 18t-1 23-7 17-13 0q-26-50-61-109t-80-110-100-85-123-34q-60 0-105 35T34 172zm157 78q-1-7-1-13 0-26 18-33 42 22 90 73t91 114 76 130 46 121q7 29 7 52 0 20-5 35-9 28-44 28-6 0-13-1-20-22-53-70t-67-106-67-121-53-117-25-92z"/><glyph unicode="h" horiz-adv-x="776" d="M52 1456q0 38 22 47t50 9q40 0 66-22t30-62q18-218 21-431t29-431q60 114 124 188t123 98q25 10 48 10 32 0 60-19 49-33 79-130t36-264q1-31 1-65 0-148-21-350-14 0-34-1t-39 1-33 8-16 22q16 150 18 252v39q0 76-6 129-8 66-22 101t-30 51-31 17-23-1q-44-16-83-78t-67-144-41-173q-9-62-9-116 0-25 2-47l-4-32-7-30-16-23-33-9q-42 0-67 15t-38 39-16 56q-1 14-1 28 0 19 2 38L76 978q1 27 1 53 0 93-11 187-14 120-14 238z"/><glyph unicode="i" horiz-adv-x="346" d="M28 1534q0 14 23 25t35 11q30 0 67-17t37-51-9-46-43-12q-36 0-73 24t-37 66zm18-588v8q0 22 19 37t39 15q30 0 65-10t47-42q18-98 25-198t12-199 14-199 33-198q0-4 3-16t6-26 5-26 2-16v-4q0-2 2-4 0-24-22-48-19-21-39-21-3 0-7 1-6 2-29 7t-31 9q-6 2-16 9t-19 15-15 18 0 18q-20 200-34 342T82 656 65 809t-11 86-6 39-2 12z"/><glyph unicode="j" horiz-adv-x="402" d="M-232-330q0 58 12 83t30 26 41-15 50-36 54-39 53-23q56 0 92 39t57 94 28 115 7 100v13l-3 39-7 89-13 159-22 251-33 367q0 30 15 50t47 20q40 0 66-11t48-49q0-24 2-53t6-74 11-112 16-164 20-232T368-8q0-66-11-136t-39-133-76-112-120-71q-12 4-24-2t-24-6q-40 0-86 8t-90 24-79 43-51 63zM20 1456q0 32 25 43t49 11q38 0 72-22t34-68q0-26-27-37t-47-11q-14 0-32 7t-35 19-28 27-11 31z"/><glyph unicode="k" horiz-adv-x="798" d="M65 264q1 114 2 251t3 281 2 263-1 197-5 80q0 20 14 41 12 18 29 18 3 0 7-1 16 0 37-5t39-15 31-25 13-37V728h8l230 262q14 18 27 42t27 46 32 40 46 24q42-10 72-28t30-64q0-4-3-13t-5-13q-6-8-25-31t-62-76-116-140-187-225l18-10 388-40q26-4 47-29t21-47q0-40-29-57t-63-21q-2 8-13 9l-55 5-133 13-247 33 8-476q0-40-14-61t-62-21q-36 0-63 23T74-74q0 10-2 34t-3 51-2 50-1 33q-1 37-1 100v70z"/><glyph unicode="l" horiz-adv-x="306" d="M46 1364q0 38 18 51t54 13q46 0 79-27t35-75q-1-76-1-151 0-207 8-412 11-279 11-565V44q-12-16-34-32-18-13-35-13l-9 1q-58 10-84 47t-26 93q0 84 4 164t4 164q-4 171-4 337v147q0 201-20 412z"/><glyph unicode="m" horiz-adv-x="1162" d="M52 862q0 44 29 56t63 12h40q30-14 42-34t16-44 3-50 1-50q2-10 2-34t1-50 4-48 9-28l176 330q12 22 35 37 18 12 39 12 6 0 12-1 44-4 66-17t31-34 10-51 3-66q0-12 2-45t5-69 6-68 5-44h8q4 14 15 54t25 84 26 84 18 56q2 4 8 17t12 28 12 28 8 19q14 22 29 23t33 1q50 0 77-25t40-63 19-83 14-83q2 0 2-3t-2-5l110-582q8-8 9-14t1-16q0-22-21-43t-43-21q-30 0-69 22t-45 56l-92 474-10 16q-4-10-17-57t-31-118-41-159-47-180q-4-18-23-27t-33-9q-42 0-68 10t-40 30-20 48-10 64q0 8-4 57t-9 112-11 127-8 102v19l-2 8-8 17-58-138-92-338-20-124q-2-12-11-21T262 9t-24-7-20-2q-44 0-75 32t-33 70q-2 14-4 55t-6 97-7 118-7 118l-7 98-3 56v8q-4 52-9 105T52 862z"/><glyph unicode="n" horiz-adv-x="828" d="M46 90q6 24 11 88t7 148 3 177q0 46 .5 89.5T67 677q-1 81-3 140t-4 77q0 20 1 41t6 39 18 29 41 11q38 0 71-32t33-68q0-52-5-103t-5-103v-54l8-54q6 16 20 56t31 84 31 83 20 55q14 40 42 77t74 41q30 2 55-16t43-47 30-60 18-53l108-498 84-228q2-2 2-11V70q0-24-11-47T736 0q-34 0-70 19t-50 49q-28 40-47 111t-36 150-31 154-29 120-33 51q-2 1-3 1-17 0-39-55L224 64q-10-28-24-39t-46-11q-16 0-34 5T86 34 59 58 46 90z"/><glyph unicode="o" horiz-adv-x="676" d="M52 300v6l74 514q4 26 23 38t43 12q44 0 70-25t44-61h2q24 0 43 9t47 9q64 0 109-40t73-97 41-123 13-116q0-60-31-134t-82-140T406 42 276-2q-60 0-103 28t-70 71-39 97-12 106zm168-6q4-20 8-46t12-47 23-32q8-6 19-6 10 0 24 5 26 24 56 54t57 64 45 72 18 80q2 21 2 41 0 45-12 84-18 57-51 82-19 14-40 14-16 0-35-8-42-19-84-103-24-52-33-121t-9-127v-6z"/><glyph unicode="p" d="M10 460q0 12 6 16t10 12q4 6 16 22t26 35 26 36 16 23q0 26-3 63-1 14-1 27 0 22 3 43 5 33 23 56t60 23q24 0 40-17t40-17h8q82 64 169 113t195 49q70 0 115-41t45-115q0-92-42-190T657 407 521 232 388 90q-6-8-18-17t-22-19q-12-10-26-24l-16-460q0-18-1-38t-8-37-20-28-37-11q-12 0-32 5t-38 15-31 24-13 32l-16 828q-38 14-69 34t-31 66zm278 84l8-310h8q2 0 13 12t26 28 30 33 23 27q60 44 110 110t81 133 38 121q2 12 2 22 0 37-20 53-11 9-30 9-22 0-56-14-61-26-165-120-24-20-44-46t-24-58z"/><glyph unicode="q" horiz-adv-x="790" d="M44 282q0 88 31 178t85 168 126 139 152 93q22 8 70 18 44 9 89 9h9q50-1 88-16t42-55q0-22-7-47t-13-45q2-60 2-120 0-90-4-179-6-149-6-299 0-168 14-334t14-334q0-14-5-32t-14-33-23-23q-9-5-21-5-6 0-13 1h-6q-52 0-77 60-27 64-36 163-7 81-7 175v43q2 119 7 226t7 187v25q0 58-8 75l-8-8q-32-64-64-115t-61-87-51-55-34-15q-22-14-41-16t-41-2q-52 0-89 24t-61 61-35 83-11 92zm152-57q6-21 22-21 10 0 24 9 36 23 87 90t98 149 80 166 33 142q-60-24-109-66t-88-93-69-108-54-113q-26-93-26-135 0-12 2-20z"/><glyph unicode="r" horiz-adv-x="714" d="M60 956q0 26 24 34t46 8q28 0 59-16t39-44q0-8 2-29t3-43 3-43 2-29v-29l2-11 6-20q4 4 9 10t7 8q32 46 62 81t62 66 71 66 91 81l18 15 11 8 11 4 16 1q34 0 69-23t35-63q0-14-10-29t-24-28-29-23-27-14q-52-46-110-105T400 662t-82-142-32-148q0-68 10-134t10-134V34q-16-16-28-26T244-2q-34 0-66 29t-42 59q-4 72-13 193t-20 251-23 246-20 180z"/><glyph unicode="s" horiz-adv-x="824" d="M28 460q2 46 48 102t108 110 125 100 101 72q42 24 100 39t106 15q40 0 70-15t30-59q0-18-3-34t-25-22q-18 2-36 2-44 0-84-11-56-15-106-45t-94-71-86-85q-12-14-30-39t-18-29v-2q52 0 103 10t102 21 102 21 105 10q20 0 44-3t45-13 34-27 13-43q0-38-19-73t-56-84-94-119T478 8q-4-6-19-8t-25-2q-28 0-57 24t-29 54q0 10 1 18t9 16q24 30 54 63t58 66 52 69 40 72v12l-262-54h-30q-28 0-69 4t-80 17-66 37-27 64z"/><glyph unicode="t" horiz-adv-x="882" d="M32 632q0 30 24 49t56 33 65 26 53 28v88q0 148-14 297t-14 295q0 40 20 52t54 12q40 0 59-23t27-56 8-70 2-63q0-26 4-92t8-140 8-140 6-92q8 2 31 11t49 18 49 17 33 12q52 22 108 49t114 27q40 0 61-27t21-63q0-26-20-38t-42-22L438 684q-6-4-12-7t-12-9v-64q0-70 3-145t13-145q10-60 22-118t12-118q0-18-12-48T414 0q-54 0-88 32t-38 86q-10 104-21 228t-21 238h-8q-28 0-50-14t-52-14q-4 0-21 1t-21 1q-8 10-18 16t-20 13-17 17-7 28z"/><glyph unicode="u" horiz-adv-x="700" d="M28 350l16 484q-2 14 7 29t24 28 34 21 35 8q46 0 78-29t32-75v-20q-22-36-38-94t-25-125-11-137v-31q0-52 5-97 7-58 23-99t42-49q10 0 31 10t45 38 50 79 46 135 30 204q7 86 7 196 0 44-1 92 8 22 23 24t31 2q18 0 30-1t26-15q10-10 22-30t12-22l34-886q0-30-16-50t-46-20q-10 0-24 2t-28 8-25 15-13 21l-34 200-8 24q-14-30-28-65t-32-63-44-47-66-19q-70 0-116 35t-75 88-41 115-12 116z"/><glyph unicode="v" horiz-adv-x="776" d="M32 824v8q0 18 11 31t27 23q4 0 16 1t16 1q38 0 55-12t45-32q8-30 21-62t32-81 49-123 76-188l10-10q6 10 11 26t18 56 37 116 68 206q16 26 22 60t14 64 25 50 53 20q34 0 66-27t32-65q0-18-12-39t-24-35L456 0h-12q-8 0-23 2t-31 7-28 11-14 14l-94 244v8L34 820q-2 2-2 4z"/><glyph unicode="w" horiz-adv-x="1014" d="M44 912q4 24 36 29t48 3q44-6 65-28t35-64l116-382 8-10q24 40 28 92t11 101 27 89 76 56q12 0 26-5t27-14 23-20 14-23l108-346 22-30q8 36 21 116t26 167 23 162 14 103q0 4 1 14t1 14q16 18 44 27 19 6 36 6 7 0 14-1 8-2 21-9t25-18 19-23 7-22L852 76q-2-12-14-19t-27-12-30-6-23-1q-48 18-83 59t-62 91-48 103-45 95l-8 2q-14-14-23-62t-15-102-10-97-4-47q-4-28-37-44-26-13-48-13-5 0-11 1-28 4-49 27t-33 45q-12 46-70 235T50 878q0 4-3 17t-3 17z"/><glyph unicode="x" horiz-adv-x="862" d="M36 710v8q0 32 23 50t53 18q46 0 85-33t70-72 56-72 43-33h8q2 10 9 31t21 65 38 116 60 184q4 18 26 23t38 5q30 0 55-20t25-54v-12L506 434l326-280 8-24v-4q0-34-25-50t-53-16q-30 0-73 32t-87 70-81 70-55 32h-8q-28-26-46-72T380 91 352-22t-33-107-45-85-66-46q-26 0-57 18t-31 48q-2 14 11 55t34 98 45 123 47 127 40 110 21 75q0 4-1 12t-1 10q-36 22-73 59t-73 78-70 83-64 74z"/><glyph unicode="y" horiz-adv-x="684" d="M40 600q4 18 21 26t33 8q40 0 72-18t58-46 47-61 41-63q12-18 30-46t36-55 31-47l13-20 24-26v210q0 100-4 195t-4 193q0 28 20 46 18 16 42 16h6q34-4 51-12t35-32q16-22 15-52t1-58q8-190 13-379t5-379q-2-18-2-73t1-125 2-146 2-139 2-104 3-39q0-30-21-44t-51-14q-40 0-59 11t-29 30-14 43-14 50q-4 42-5 102t-1 126 1 134 5 124V8q-10 14-24 29t-49 60-99 134-172 249q-42 44-54 73-9 22-9 37 0 6 1 10z"/><glyph unicode="z" horiz-adv-x="1504" d="M44 824q0 24 28 39t46 15q4 0 25-4t25-4q58 6 116 24t115 36 114 31q44 10 87 10 13 0 26-1 24 0 53-1t54-8 43-25 18-50q0-28-9-58t-25-52L524 228v-18l144 68h8l652 204h32q16 0 37-3t39-10 30-21 12-36v-5q0-23-32-41-36-20-102-39t-157-40-197-52-223-75T532 52q-6 2-30-6t-53-19-56-20-39-9q-32 0-68 23t-36 59q0 4 1 12t3 10l286 542q6 14 15 39t17 50 14 45 6 24v22q-66 0-144-31t-154-53q-51-15-97-15-23 0-45 4-66 11-108 95z"/><glyph unicode="{" horiz-adv-x="782" d="M24 736q0 18 21 36t49 36 54 34 36 28q20 26 23 62t3 64q-16 76-21 165t6 178 39 174 77 152 120 112 167 55h39l48-6 40-20 17-40q6-26-7-39t-38-20-60-12-71-16-70-32-58-59q-58-82-76-170t-16-179 13-184 11-185q46-14 72-73t38-142 14-180 0-187-6-164-2-112q18 0 36 15t36 34 37 34 41 15h6q26-22 30-28t4-34q0-36-18-74t-47-69-66-52-73-21q-50 0-81 26t-49 64-24 83-6 83q6 80 15 160t11 161-6 161-38 158q-22-8-43-21t-42-25-43-21-46-9q-34 0-65 22t-31 62z"/><glyph unicode="|" horiz-adv-x="330" d="M44 1820q0 40 15 48t49 8q46 0 66-19t36-59q22-260 30-518t14-520q4-156 1-317t23-317q10-10 10-21V84q0-40-28-62T198 0q-22 0-40 11t-32 29-22 39-10 39v152q-4 250-6 495t-10 493q-6 142-20 282t-14 280z"/><glyph unicode="}" horiz-adv-x="592" d="M31 1611q-1 21 19 35t67 17 133-9q38 0 82-26t76-79 39-136-29-197l-32-152-52-142q-16-30-34-61t-18-67v-8q22 12 44 6t39-23 27-40 10-45q-4-28-28-43t-51-30-50-36-23-59q0-24 14-39t34-26 41-20 35-17q30-16 61-33t55-43 39-62 15-86q0-66-35-139T418-85 292-189t-140-41q-16 0-36 5t-38 15-30 24-12 34q0 24 25 38t58 24 66 18 49 20Q292-6 339 60t47 142q0 36-21 60t-53 42-69 36-70 42-57 59-28 91q0 20 8 41t18 39 18 32 8 20v4l-8 8q-14 14-17 34t-3 50q6 74 36 146t60 145 50 149 8 158q0 10-2 36t-17 52-48 46-95 20q-12 6-30 22t-30 36-13 41z"/><glyph unicode="~" horiz-adv-x="816" d="M78 1004q0 10 1 17t3 17q14 42 29 84t36 79 48 65 63 40q14 0 26-3t24-19l114-144q16-10 27-24t31-14q14 0 26 22t18 32q12 18 21 40t20 42 24 33 33 13q22 0 29-18t7-46q0-42-14-89t-37-85-51-63-58-25q-36-2-68 16t-61 45-57 57-54 52q-20 0-37-28t-32-61-30-60-29-27-33 14-19 38z"/><glyph unicode="¡" horiz-adv-x="242" d="M53 581q0-20 1-35t9-34V-89q0-5 9.5-11.5T93-112t22.5-8.5T131-124q35 0 52 21t28 44q0 14-1 46.5T209 56t1 69.5 1 45.5q0 9 1 38t3 63 3 64 1 37q0 9-1 37t-2 60.5-3 64.5-2 46q-4 31-20.5 56T131 662q-45 0-61.5-21.5T53 581zm0 585q0-17 15.5-33t29.5-27h33q35 0 58.5 13.5T213 1164q0 11-8.5 22.5t-21.5 21-29.5 15-30.5 3.5q-21-4-45.5-21.5T53 1166z"/><glyph unicode="¢" horiz-adv-x="708" d="M43 371q13 71 46 142t82 137 103 116q4 112 6 174t10 92 23 34 43-2q38-2 53-12t18-32 0-60 1-96q42 14 80 9t69-33 52-81 27-137q2-4 5-13t3-13q-4-10-18-18t-34-12-40-6-32-2q0 10-5 26t-12 34-17 34-22 28q-4 4-18 5t-32 3q-8-140-9-252t15-202q10 2 19 7t19 21q12 20 18 36t15 26 23 16 42 6q32 0 60-15t28-49q0-58-56-118T478 60q4-36 7-71t3-41q0-40-29-54t-63-14q-24 0-47 37T310 0q-6-2-20-2-48 0-93 19t-78 51-53 76-20 96q-16 60-3 131zm179-21q-4-56 6-109t38-97h12v34l1 39 1 34v19q0 52-1 132t-3 172q-22-54-36-111t-18-113z"/><glyph unicode="£" horiz-adv-x="1042" d="M-100 674q0 34 24 49t52 21l96 10q0 42 1 84t1 86q0 90-9 180t-9 180q0 56 48 84t123 34 164-6 171-34 145-49 85-54-8-47-134-28q-78-12-157 4t-141 34-101 26-39-22q0-8 5-54t10-99 10-98 5-53V770l236 24q34 0 64-12t30-52q0-10-13-22t-29-22-34-17-26-3l-232-26q4-36 0-85t-5-106 3-118 22-121q122 70 212 93t156 15 112-36 79-59 58-55 51-24q10 0 28-7t35-19 29-27 12-33q0-46-50-80-20-8-57 4t-81 34-92 48-94 46-85 28-65-6q-48-12-85-27t-71-31-70-35-80-39h-18q-54 0-80 36t-34 85-6 102 2 87q0 78 1 156t3 156l-92-10q-26 0-51 17t-25 45z"/><glyph unicode="¤" horiz-adv-x="996" d="M92 140q2 10 17 36t38 60 53 76 60 86q-8 40-8 90v6l58 404q-18 38-33 72t-31 64l2 4v4q10 30 37 42t55 4q32-10 52-30 18-74 44-99t70 13h2q24 0 43 9t47 9q12 0 23-2t23-6q22 36 51 81t69 103q10 16 32 15t38-5q28-8 48-33t10-59q0-2-1-6t-3-4L768 876q34-60 50-133t16-129q0-42-15-91t-43-97l94-136v-10q0-4 1-8t1-6v-4q-10-32-38-42t-56-2q-22 6-44 29t-46 55q-46-52-101-84t-111-32q-40 0-70 11t-54 31q-40-70-87-123T160 54q-12 2-26 11t-24 21-16 26-2 28zm308 338q4-20 8-46t12-47 23-32 43-1q26 24 56 54t57 64 45 72 18 80q8 68-10 125t-51 82-75 6-84-103q-24-52-33-121t-9-127v-6z"/><glyph unicode="¥" horiz-adv-x="892" d="M16 1315q-8 25 0 45 10 34 39 40t57-4q20-4 39-15t31-33q46-102 111-210t141-194l16 22 240 490q10 22 32 20t40-6q100-30 68-134v-4l-23-37-58-92-74-119-74-119-58-92-23-39q-16-16-20-84 106 22 254 56h10q8 0 19-4t22-11 19-15 8-16q0-26-14-49t-36-33q-70-26-138-45t-138-37q2-24 3-48t3-50q34 10 65 20t61 26q44 14 67 19t57 5q26 0 58-10t36-40q-2-8-11-31t-13-27-19-14-23-14q-68-10-134-38t-130-56q4-66 6-142t-3-141-20-109-43-44q-36 10-58 38T384 6l-12 274q-22-6-44-10t-44-6q-34 0-69 21t-35 59q40 40 88 65t102 43v110q-40-10-79-21t-79-25q-14 0-35 4t-40 12-33 21-16 31q-4 38 18 53t50 23q46 16 94 30t118 30v66l-26 24q-6 6-30 37t-53 70-56 78-41 61q-10 12-28 42t-39 64-38 65-23 43q-10 20-18 45z"/><glyph unicode="¦" horiz-adv-x="282" d="M46 319v85q0 36 3 62t8 49 9 49 8 62h114q-4-50-4-89t1-76 2-76 1-89q0-48 5-96t5-96q0-16-2-34t-8-34-19-27-33-11q-36 0-54 24T54 76q-4 46-5 86t-2 79-1 78zm16 377q8 82 15 163t11 163q0 18-1 47t5 56 22 44 50 15q32-4 50-26t28-52q-10-102-20-205t-18-205H62z"/><glyph unicode="§" horiz-adv-x="990" d="M28 460q-4 44 22 96t69 100 99 85 116 51q-28 4-55 12t-49 21-36 34-14 49q2 46 48 102t108 110 125 100 101 72q42 24 100 39t106 15q40 0 70-15t30-59q0-18-3-34t-25-22q-64 6-120-9t-106-45-94-71-86-85q-12-14-30-39t-18-29v-2q52 0 103 10t102 21 102 21 105 10q20 0 44-3t45-13 34-27 13-43q16-56-1-106t-58-94-101-84-130-78h2q20 0 44-3t45-13 34-27 13-43q24-82-22-151T628 184 431 70 212-38q-4-6-19-8t-25-2q-28 0-57 24T82 30q0 10 1 18t9 16q56 16 139 49t160 77 128 93 43 97v12l-262-54h-30q-28 0-69 4t-80 17-66 37-27 64zm220 52q32-20 101-2t141 59 130 94 68 105q-98 32-175 6t-133-76-89-105-43-81z"/><glyph unicode="¨" horiz-adv-x="604" d="M80 1420q0 28 21 52t49 24q34 0 55-18t41-40v-6q0-34-23-61t-61-27q-26 0-54 24t-28 52zm258 0q0 28 21 52t49 24q34 0 55-18t41-40v-6q0-34-23-61t-61-27q-26 0-54 24t-28 52z"/><glyph unicode="©" horiz-adv-x="1432" d="M129 476q1 56 10 134t30 169 58 181 93 171 136 136 186 76 244-5q56-2 104-36t88-85 71-111 53-112q14-40 28-111t25-149 18-150 7-114q0-60-35-141t-92-153-132-122T868 4q-20 0-75-6T665-7 511 10 355 70 220 194t-88 208q-4 18-3 74zm138 98q-1-138 59-306 18-38 66-61t107-36 123-16 116-3 86 2 32 2h16q42 38 87 80t83 89 62 98 24 105q0 24-11 81t-29 130-42 151-51 143-53 107-50 44q-68 20-152 6t-167-60-154-124-111-186-41-246zm135-134q-14 60 1 142t48 165 82 157 104 118 112 49 109-51q0-2 2-10t4-33 3-70 1-123q2-4 5-13t3-13q-6-22-23-41t-43-19q-34 0-55 11t-31 53q4 6 2 25t-7 43-9 48-4 38q-2 0-5-3l-5-5q-34-60-63-133t-44-148-10-149 43-134q28 0 52 23t40 43q34 40 67 82t61 88q12 20 18 36t15 26 23 16 42 6q32 0 60-15t28-49q0-46-41-115T887 352 762 243t-116-45q-48 0-93 19t-78 51-53 76-20 96z"/><glyph unicode="ª" horiz-adv-x="558" d="M32 364q1 102 20 186t59 147.5T213.5 803 366 863q3 0 10 .5t10 .5q40 1 58-27.5t26.5-90 12-158.5T497 356q4-11 4.5-19t.5-19q0-15-12-22.5t-31-7.5q-38 0-54 16t-22 43q0 1-2 16t-5 34.5-6 39.5-4 33v4q-3 10-3.5 25t-3.5 29q-3 17-4 34l-5 5q-12-16-27.5-38.5t-33-48-38-51T209 383t-46-35.5-50-17.5q-10 0-23.5 1.5t-27 5-22 10T32 364zm126 114q1 0 3 2l3 3q83 60 117 130t39 153q-36-20-70.5-54T200 646q-6-15-14-41.5t-14-52-10-47-4-27.5z"/><glyph unicode="«" horiz-adv-x="1680" d="M156 623q-4 23 10 51 12 26 34 33t48 21q10 4 35 16t52 25 51 26 34 19q16 16 34 21t34 19l332 208q20 12 36 29t32 31 35 20 43-6q40-20 52-60t-4-78q0-4-7-10t-11-10L598 730q-18-16-46-28t-56-25-52-28-34-35q118-56 226-116t220-128q0-14 9-25t17-22 11-25-5-32q-16-34-45-43t-63 7q-24 12-35 28t-33 30q-60 48-127 86t-137 72q-4 2-24 10t-44 18-44 18-24 10-25 12-29 14q-22 10-45 24t-38 31-19 40zm486-22q-4 23 10 51 12 26 34 33t48 21q10 4 35 16t52 26 51 26 34 18q16 16 34 21t34 19l332 208q20 12 36 29t32 31 35 20 45-6q40-20 51-60t-5-78q0-4-7-10t-11-10l-398-248q-18-16-46-28l-56-24-52-27-34-35q118-58 226-117t220-129q0-14 9-25t17-22 11-25-5-32q-16-34-45-43t-63 7q-24 12-35 29t-33 29q-60 48-127 86t-137 72q-4 2-24 10t-44 18-44 18-24 10-25 12-29 14q-22 10-45 24t-38 31-19 40z"/><glyph unicode="¬" horiz-adv-x="1116" d="M120 742q0 34 24 49t52 21l736 68q34 0 64-12t30-52q0-4-2-13t-3-43 2-103 13-191q0-34-12-64t-52-30q-10 0-22 13t-22 29-17 33-3 27l-18 274-694-68q-26 0-51 17t-25 45z"/><glyph unicode="­" horiz-adv-x="818" d="M108 506q0 34 24 49t52 21l502 50q34 0 64-12t30-52q0-10-13-22t-29-22-34-17-26-3l-494-54q-26 0-51 17t-25 45z"/><glyph unicode="®" horiz-adv-x="1294" d="M83 534q1 56 10 134t30 169 58 181 93 171 136 136 186 76 244-5q56-2 104-36t88-85 71-111 53-112q14-40 28-111t25-149 18-150 7-114q0-60-35-141t-92-153-132-122-153-50q-22 0-76-6t-127-5-154 17-156 60-135 124-88 208q-4 18-3 74zm138 98q-1-138 59-306 18-38 66-61t107-36 123-16 116-3 86 2 32 2h16q32 30 68 63t69 69 60 74 43 80q-32-8-75-11t-107 3-155 23-221 49q-2-2-2-4-2-2-2-4 0-16 2-41t5-53 5-53 2-41q0-12-7-27t-27-15q-6 0-20 1t-29 3-26 6-13 10l-14 238q-8 12-11 19t-3 17q0 8 2 14t2 14q0 20-1 36t-3 36q-4 6-22 10t-18 26q0 10 6 18t12 14 12 14 6 18q-2 10-3 41t-1 41v4q8 16 29 23t39 7q22 0 32-7t15-16 6-17 5-10q18 30 51 66t70 64 77 45 73 12 55-39 26-106q0-64-26-115t-70-89-101-62-119-32l502-26q10-2 25-1t31-3q-2 32-14 91t-31 130-42 145-48 135-51 100-48 41q-68 20-152 6t-167-60-154-124-111-186-41-246zm265 150q0-22 1-42t3-42h2q2 0 6 2t21 11 51 29 98 56q12 6 26 21t27 32 21 34 8 27-10 10h-16q-16 0-36-4t-48-17-66-38-88-65v-14z"/><glyph unicode="¯" horiz-adv-x="812" d="M48 1428q0 34 24 49t52 21l502 50q34 0 64-12t30-52q0-10-13-22t-29-22-34-17-26-3l-494-54q-26 0-51 17t-25 45z"/><glyph unicode="°" horiz-adv-x="558" d="M70 963q-14 43 21 107t151 148h2q16 0 29 4t31 4q42 0 72-18t49-43 27-54 8-51q0-26-21-59t-54-61-76-48-87-20q-46 2-92 25t-60 66zm112 61q10-30 37-37t55 2 50 30 20 45q-2 50-27 63t-55 1-54-41-26-63z"/><glyph unicode="±" horiz-adv-x="874" d="M84 150q0 34 24 49t52 21l200 20q2 50-2 102t-16 102h-8q-30 0-49-4t-37-9-39-9-51-4q-68 0-68 70 0 42 32 56t75 19 85 7 60 18l32 362q4 34 16 40t40 6q4 0 15-1t15-1q16-12 28-34v-72q0-68-4-134t-4-134h8l220 30q16-4 29-6t23-7 16-16 6-33v-6q-18-18-40-25t-55-15-81-19-118-35q-10-4-10-11v-15q0-52 8-104t10-104l166 16q34 0 64-12t30-52q0-10-13-22t-29-22-34-17-26-3L160 88q-26 0-51 17t-25 45z"/><glyph unicode="²" horiz-adv-x="610" d="M30 640v2q7 14 19.5 28t28 26.5T108 720t27 20q16 13 37 27.5t43.5 27 47 21T311 824q42 0 58.5-25t16.5-63q0-73-26.5-143.5T296 459v-4l-30-51h10q49 27 105.5 45T492 479h5q21 0 35-6.5t14-30.5q0-17-9-29-10-2-24.5-6.5T488 404l-114-38-186-93q-19-9-37-9-16 0-31.5 12.5T104 306q0 9 2 13.5t9 14.5q31 46 63 93t58 96 42.5 101T295 732q-35 0-61.5-19.5t-51-44-48-44.5T85 604q-9 0-18 1.5T50 611t-14 11.5-6 17.5z"/><glyph unicode="³" horiz-adv-x="448" d="M20 747q0 15 14 31t37 29 50.5 25 54.5 20.5 49.5 13.5 34.5 5q35 0 35-42v-14q-16-48-38.5-86.5T211 647h10q13 0 24 2.5t24 2.5q37 0 59-27.5t31-67.5q0-6 .5-22.5t.5-20.5q0-72-26.5-123T256 299q-27-24-58-24-15 0-26.5 12.5T160 316q0 10 1 15.5t11 11.5q1 1 4.5 1.5t8 1.5 7.5 1.5 4 .5q6 1 13 6t14 11 13 11.5 8 7.5q28 27 37.5 59t9.5 72v15l-.5 20-3 18-8.5 11q-2 2-9 2h-9q-21 0-40.5-10.5t-38-23T145 525t-42-10q-15 0-23.5 11T71 554t18 46 40.5 61 44 64 30.5 55h-8q-21 0-39-10.5T123 747t-31.5-22T59 715q-12 0-25.5 7T20 747z"/><glyph unicode="´" horiz-adv-x="500" d="M174 1258q-6 52 9 82t40 54 55 50 58 72q30 24 56 16t48-42q12-18 11-33t-9-30-19-27-19-24q-16-20-46-55t-64-62-67-33-53 32z"/><glyph unicode="µ" horiz-adv-x="898" d="M28-120L78 924q0 2 15 23t25 31q16 14 30 15t36 1q20 0 37-2t27-24q-6-174 7-299t36-211 53-139 59-82 53-39 36-10q30 10 50 51t28 99 7 128-11 138-29 127-45 95v22q0 48 38 77t92 29q40 0 58-29t12-57l84-454q12-46 28-104t27-116 15-109-5-84-36-40-75 21q-16 8-20 40t-6 63-3 50-11 3q-34-52-89-88T466 14q-46 0-77 19t-52 49-37 65-34 67l-8-24-52-334q-6-24-20-33t-30-11-31-2-23-2q-36 0-55 20t-19 52z"/><glyph unicode="¶" horiz-adv-x="904" d="M22 966q0 110 34 187t91 129 131 80 156 39 166 7 160-18q8 2 28 2 36-6 58-38 36-26 18-58-10-102-22-228t-23-258-18-258-7-226q0-48 5-96t5-96q0-16-2-34t-8-34-19-27-33-11q-36 0-54 24t-28 54q-4 46-5 86t-2 79-1 78v85q0 78 8 183t18 215 20 215 14 183v14q-46-6-84-15t-38-21q0-148-16-295t-26-297q-10-142-15-282T514 52q-14-28-30-40T434 0t-59 27-21 59q0 2 2 17t5 32 6 31 3 18q0 2 1 18t3 37 3 42 1 33q10 158 23 317t13 319v38q-30-24-54-57t-50-65-58-55-76-27q-42-4-71 11t-48 41-27 60-8 70z"/><glyph unicode="·" horiz-adv-x="258" d="M50 568q0 28 21 52t49 24q34 0 55-18t41-40v-6q0-34-23-61t-61-27q-26 0-54 24t-28 52z"/><glyph unicode="¸" horiz-adv-x="828" d="M114-182q12 66 40 120t63 90 70 51 60 4 33-52-12-115q-12-14-30-39t-18-29v-2q52-10 116-7t125-3 114-34 85-102q18-84-2-129t-74-72-138-48-190-59q-4-6-19-8t-25-2q-28 0-57 24t-29 54q0 10 1 18t9 16q24 30 69 40t92 17 87 21 56 56q16 36-5 52t-57 20-72 1-50-5q-28 0-69 4t-80 17-66 37-27 64z"/><glyph unicode="¹" horiz-adv-x="282" d="M43 458.5V501q0 78 13 155t19 156q0 9-.5 23.5t4 28 16.5 22 39 7.5q24-2 38-13t21-26q-15-102-28-203t-13-204q0-24 4-48.5t4-48.5q0-8-2-17t-6.5-17-14.5-13.5-25-5.5q-27 0-41 12t-22 27q-3 23-3.5 43.5t-1.5 40-1 39z"/><glyph unicode="º" horiz-adv-x="414" d="M40 350v3l39 231q2 11 12 16.5t22 5.5q23 0 36.5-11t23.5-28h1q12 0 22 4.5t25 4.5q33 0 56.5-18t38.5-44 21.5-55.5T344 406q0-26-16-59.5t-43-63-60-49.5-68-20q-31 0-53.5 12.5t-36.5 32T46.5 302 40 350zm88-3q2-9 4-20.5t6.5-21 12-14.5 22.5 0q13 10 29 23.5t30 29 23.5 32.5 9.5 36q4 30-5.5 56T233 505t-39 2.5-44-46.5q-13-23-17.5-54t-4.5-57v-3z"/><glyph unicode="»" horiz-adv-x="1318" d="M32 1064q-2 14 11 25t30 18 35 10 24 3q78-46 161-78t168-61 171-57 170-66q14-18 20-29t6-27q0-40-27-68t-49-60q-48-68-89-131t-83-124-91-121-111-122q-4-6-23-18t-27-16q-16-4-36 0t-38 14-30 26-12 36q0 14 9 28t22 26 27 22 26 16l320 448q8 12 8 22v6L76 996q-4 0-11 9t-14 21-13 23-6 15zm376 66q-2 14 11 25t30 18 35 10 24 3q78-46 161-78t168-61 171-57 170-66q14-18 20-29t6-27q0-40-27-68t-49-60q-48-68-89-131t-83-124-91-121-111-122q-4-6-23-18t-27-16q-16-4-36 0t-38 14-30 26-12 36q0 14 9 28t22 26 27 22 26 16l320 448q8 12 8 22v6l-548 210q-4 0-11 9t-14 21-13 23-6 15z"/><glyph unicode="¼" horiz-adv-x="1116" d="M46 470v47q0 85 15.5 168.5T84 854q0 10-1 26t4.5 30.5 20 24T153 943q29-3 45.5-15t25.5-28q-18-110-33.5-220T175 458q0-27 4.5-53t4.5-52q0-9-2-19t-7.5-18.5-17-14.5-29.5-6q-33 0-49.5 13T53 338q-4 25-4.5 46.5t-1.5 43-1 42.5zm69-599q11 80 27 150t34 150v13l290 1226q6 28 22 38.5t51 10.5h4q38-16 49.5-27t11.5-44q0-20-6.5-41.5T587 1305q-2-5-7-23t-11-39.5-11-40-7-23.5v-6L322 234q-18-94-39.5-188T245-142q-6-20-25-29t-42-9q-22 0-42.5 12T115-134v5zm259 501q1 8 15.5 18.5T408 408q2 2 9.5 14t16.5 25.5 16.5 25T461 487q0 6 7 6l145 220q0 2 2.5 3t4.5 3q4 5 15 17.5t23.5 26 23.5 26 16 18.5q8 9 17 10.5t22 1.5q11 0 23.5-3t23.5-8 19-15 8-22V480q28 0 50.5 13t52.5 13q55 0 55-50 0-11-4-22t-17-16l-137-46v-4q0-77 16-152.5T843 66q0-22-12.5-40.5T792 7q-10 0-18.5.5T757 12q-8 6-20.5 17T724 43v11l-32 289h-7q-33 0-65-5.5T556 325t-64-12.5-65-5.5h-6q-17 11-33.5 27.5T374 372zm185 46q6 0 21 3t32 5.5 32 5 23 3.5q1 1 8 3t10 4q2 0 4.5 2.5t2.5 4.5v171l-7 8-126-199v-11z"/><glyph unicode="½" horiz-adv-x="1202" d="M42 479v52q0 94 12 187.5T72 906q0 11-.5 29t3.5 34 15.5 26.5 34.5 9.5q23-3 35.5-16t19.5-32q-14-122-26-244.5T142 465q0-29 3.5-58.5T149 348q0-9-1-20t-5.5-21-13.5-16.5-23-6.5q-26 0-38.5 14.5T48 331q-3 28-3.5 52.5t-1.5 48-1 47.5zM152-61q9 69 22.5 130.5T204 200v12l249 1065q6 25 19.5 34.5t43.5 9.5h4q33-15 42.5-24.5t9.5-37.5q0-18-5.5-36.5T558 1186q-2-4-6.5-20t-9.5-34.5-9.5-34.5-5.5-20v-6L330 255q-16-82-34.5-163.5T263-72q-5-18-21.5-26t-35.5-8-36.5 11T152-65v4zm235 564v3q9 18 25.5 35t36 33 39 30 34.5 25q22 16 49 34t56 34 61 26.5 63 10.5q54 0 75-31t21-80q0-91-33.5-179T732 277v-5l-40-64h14q63 33 136 56t144 38h6q27 0 45-8.5t18-38.5q0-21-12-36-12-3-31-8.5t-32-2.5l-148-49L592 43q-24-11-48-11-22 0-41.5 16T483 85q0 11 2.5 16.5T497 119q41 58 82 117t75 120.5T709 483t21 136q-45 0-79.5-25t-66-55.5-62-55.5-64.5-25q-11 0-23 2.5t-22.5 7-18 13.5-7.5 22z"/><glyph unicode="¾" horiz-adv-x="1386" d="M24 790q0 17 20.5 34T98 856t73.5 28 80 22.5 72.5 15 51 5.5q50 0 50-46v-16q-23-54-56-96t-66-90h14q19 0 35 2.5t35 2.5q55 0 86.5-30.5T519 579q0-6 .5-24.5t.5-23.5q0-79-38.5-136T368 293q-39-26-84-26-22 0-39 13.5T228 312q0 11 2 17.5t15 12.5q2 1 7.5 1.5t11.5 2 11 2 6 .5q8 1 18.5 6.5t21 12T339 379t12 8q40 30 54.5 66t14.5 80v16.5l-.5 22-5 20.5-12.5 12q-3 1-13 1h-13q-32 0-60-11t-55-25-55-25-61-11q-22 0-34.5 12.5T98 576q0 19 26.5 51t59.5 67.5 64.5 71T292 826h-11q-31 0-57.5-11.5T174 790t-46-24.5T81 754q-18 0-37.5 8T24 790zM367-76q9 68 23.5 128T421 180v11l258 1043q5 24 19.5 33t44.5 9h4q34-14 44-23t10-37q0-17-5.5-35.5T787 1145q-2-4-6.5-19.5t-10-34-10-34-6.5-19.5v-6L551 233q-17-80-35.5-160T482-87q-5-17-22-25t-37-8-38 10.5T367-80v4zm184 464q2 8 15 18t17 17q2 2 9 13.5t15.5 25 15.5 25 10 13.5q0 6 6 6l135 216q0 1 2.5 2.5t3.5 2.5q4 5 14.5 17.5t22 25.5 21.5 25.5 15 17.5q7 9 15.5 10.5T889 825q10 0 22-2.5t22-8 17.5-15T958 778V494q26 0 47 12.5t49 12.5q51 0 51-49 0-11-4-22t-15-15l-128-45v-4q0-75 15-149t15-146q0-22-11.5-40T940 31q-9 0-17 .5T908 36q-7 6-19 16.5T877 66v11l-30 283h-6q-30 0-60-5.5T721 342t-59.5-12-60.5-5h-6q-16 10-31 26.5T551 388zm172 45q6 0 20 3t30 5.5 29.5 4.5 21.5 3q1 2 7.5 4t9.5 3q2 0 4 3t2 4v168l-6 8-118-195v-11z"/><glyph unicode="¿" horiz-adv-x="732" d="M5 190q0 47 14 96.5t34.5 97 45 90.5 45.5 80q13 25 35.5 56t43 65 35.5 68 15 61q0 16-12 24t-12 25q0 37 19 52.5t46 15.5q45 0 74.5-38t29.5-90v-4q-10-56-32-104t-48.5-92.5T282 505t-53-91q-4-6-13-25.5t-19.5-43-20-46.5-12.5-33q-9-23-7-29t2-27q68 0 123.5 32T395 319q25 21 45.5 46t53.5 25q25 0 54-24t29-61q0-12-2.5-15T562 278q-50-47-97.5-87t-98-70-106-47.5T140 56q-55 0-95 31T5 190zm137 1100q0 43 22 58.5t51 15.5q33 0 61-19.5t28-63.5q0-28-20.5-55t-47.5-27q-33 0-63.5 21.5T142 1290z"/><glyph unicode="À" horiz-adv-x="1018" d="M50 86v40q0 120 16 238t28 236q0 6 2 27t5 45 6 45 3 27v8l84 624q-4 40 13 71t63 31q50 6 83-13t55-49 36-66 30-66q10-28 25-66t36-96 50-142 67-204l8-8q14 8 53 26t82 38 81 38 54 24q2 4 11 7t13 5h4q20 0 30-15t10-29q0-22-10-38t-23-29-28-25-23-26L716 644q-8-10-8-16 0-16 17-50l27-54q6-12 20-44t30-66 31-65 21-43v-6q0-72-72-72-22 0-46 5t-36 29L566 548h-18q-76-58-162-114t-176-96q-14-72-17-146t1-148q-16-22-32-33T118 0 76 13 56 45t-6 41zm147 1736q-1 14 11 30 22 30 50 38t60-14q30-42 62-66t59-47 43-51 10-76q-22-36-57-30t-71 31-69 58-49 51l-22 22-19 26-8 28zm31-1308q60 24 117 64t109 74q6 4 15 8t17 10 20 14v16l-184 524-8 8q-6-12-15-68t-20-145-24-205-27-248v-52z"/><glyph unicode="Á" horiz-adv-x="1018" d="M50 86v40q0 120 16 238t28 236q0 6 2 27t5 45 6 45 3 27v8l84 624q-4 40 13 71t63 31q50 6 83-13t55-49 36-66 30-66q10-28 25-66t36-96 50-142 67-204l8-8q14 8 53 26t82 38 81 38 54 24q2 4 11 7t13 5h4q20 0 30-15t10-29q0-22-10-38t-23-29-28-25-23-26L716 644q-8-10-8-16 0-16 17-50l27-54q6-12 20-44t30-66 31-65 21-43v-6q0-72-72-72-22 0-46 5t-36 29L566 548h-18q-76-58-162-114t-176-96q-14-72-17-146t1-148q-16-22-32-33T118 0 76 13 56 45t-6 41zm38 1466q-6 52 9 82t40 54 55 50 58 72q30 24 56 16t48-42q12-18 11-33t-9-30-19-27-19-24q-16-20-46-55t-64-62-67-33-53 32zM228 514q60 24 117 64t109 74q6 4 15 8t17 10 20 14v16l-184 524-8 8q-6-12-15-68t-20-145-24-205-27-248v-52z"/><glyph unicode="Â" horiz-adv-x="1018" d="M-24 1586l166 292q2 4 7 17t11 27 12 27 8 19q8 16 29 19t41 3q16 0 28-3t24-15q6-10 23-35t37-52 37-52 23-33q2-2 8-9t6-9q6-8 20-29l30-45 30-46 20-30q6-10 7-15t1-15q0-22-18-30t-48-8q-26 0-47 11t-31 27l-134 198-8-6q-6-8-12-22t-21-42-41-73-72-117q-4-4-21-10t-23-6q-12 0-31 5t-35 13-25 19-1 25zM50 86v40q0 120 16 238t28 236q0 6 2 27t5 45 6 45 3 27v8l84 624q-4 40 13 71t63 31q50 6 83-13t55-49 36-66 30-66q10-28 25-66t36-96 50-142 67-204l8-8q14 8 53 26t82 38 81 38 54 24q2 4 11 7t13 5h4q20 0 30-15t10-29q0-22-10-38t-23-29-28-25-23-26L716 644q-8-10-8-16 0-16 17-50l27-54q6-12 20-44t30-66 31-65 21-43v-6q0-72-72-72-22 0-46 5t-36 29L566 548h-18q-76-58-162-114t-176-96q-14-72-17-146t1-148q-16-22-32-33T118 0 76 13 56 45t-6 41zm178 428q60 24 117 64t109 74q6 4 15 8t17 10 20 14v16l-184 524-8 8q-6-12-15-68t-20-145-24-205-27-248v-52z"/><glyph unicode="Ã" horiz-adv-x="1018" d="M50 86v40q0 120 16 238t28 236q0 6 2 27t5 45 6 45 3 27v8l84 624q-4 40 13 71t63 31q50 6 83-13t55-49 36-66 30-66q10-28 25-66t36-96 50-142 67-204l8-8q14 8 53 26t82 38 81 38 54 24q2 4 11 7t13 5h4q20 0 30-15t10-29q0-22-10-38t-23-29-28-25-23-26L716 644q-8-10-8-16 0-16 17-50l27-54q6-12 20-44t30-66 31-65 21-43v-6q0-72-72-72-22 0-46 5t-36 29L566 548h-18q-76-58-162-114t-176-96q-14-72-17-146t1-148q-16-22-32-33T118 0 76 13 56 45t-6 41zm26 1482q0 10 1 17t3 17q14 42 29 84t36 79 48 65 63 40q14 0 26-3t24-19l114-144q16-10 27-24t31-14q14 0 26 22t18 32q12 18 21 40t20 42 24 33 33 13q22 0 29-18t7-46q0-42-14-89t-37-85-51-63-58-25q-36-2-68 16t-61 45-57 57-54 52q-20 0-37-28t-32-61-30-60-29-27-33 14-19 38zM228 514q60 24 117 64t109 74q6 4 15 8t17 10 20 14v16l-184 524-8 8q-6-12-15-68t-20-145-24-205-27-248v-52z"/><glyph unicode="Ä" horiz-adv-x="1018" d="M50 86v40q0 120 16 238t28 236q0 6 2 27t5 45 6 45 3 27v8l84 624q-4 40 13 71t63 31q50 6 83-13t55-49 36-66 30-66q10-28 25-66t36-96 50-142 67-204l8-8q14 8 53 26t82 38 81 38 54 24q2 4 11 7t13 5h4q20 0 30-15t10-29q0-22-10-38t-23-29-28-25-23-26L716 644q-8-10-8-16 0-16 17-50l27-54q6-12 20-44t30-66 31-65 21-43v-6q0-72-72-72-22 0-46 5t-36 29L566 548h-18q-76-58-162-114t-176-96q-14-72-17-146t1-148q-16-22-32-33T118 0 76 13 56 45t-6 41zm18 1592q0 28 21 52t49 24q34 0 55-18t41-40v-6q0-34-23-61t-61-27q-26 0-54 24t-28 52zM228 514q60 24 117 64t109 74q6 4 15 8t17 10 20 14v16l-184 524-8 8q-6-12-15-68t-20-145-24-205-27-248v-52zm98 1164q0 28 21 52t49 24q34 0 55-18t41-40v-6q0-34-23-61t-61-27q-26 0-54 24t-28 52z"/><glyph unicode="Å" horiz-adv-x="1018" d="M50 86v40q0 120 16 238t28 236q0 6 2 27t5 45 6 45 3 27v8l84 624q-4 40 13 71t63 31q50 6 83-13t55-49 36-66 30-66q10-28 25-66t36-96 50-142 67-204l8-8q14 8 53 26t82 38 81 38 54 24q2 4 11 7t13 5h4q20 0 30-15t10-29q0-22-10-38t-23-29-28-25-23-26L716 644q-8-10-8-16 0-16 17-50l27-54q6-12 20-44t30-66 31-65 21-43v-6q0-72-72-72-22 0-46 5t-36 29L566 548h-18q-76-58-162-114t-176-96q-14-72-17-146t1-148q-16-22-32-33T118 0 76 13 56 45t-6 41zm30 1389q-14 43 21 107t151 148h2q16 0 29 4t31 4q42 0 72-18t49-43 27-54 8-51q0-26-21-59t-54-61-76-48-87-20q-46 2-92 25t-60 66zm112 61q10-30 37-37t55 2 50 30 20 45q-2 50-27 63t-55 1-54-41-26-63zm36-1022q60 24 117 64t109 74q6 4 15 8t17 10 20 14v16l-184 524-8 8q-6-12-15-68t-20-145-24-205-27-248v-52z"/><glyph unicode="Æ" horiz-adv-x="1420" d="M50 86v40q0 120 16 238t28 236q0 6 2 27t5 45 6 45 3 27v8l84 624q-4 40 13 71t63 31q50 6 83-13t55-49 36-66 30-66q10-28 25-66t36-96 50-142 67-204l8-8 8 4v38q0 20-4 68t-8 102-7 102-5 66q-2 34-18 60t-16 60q0 64 26 90t92 26q14 0 23-12t21-12h8q6 2 18 5t16 3q168 72 262 112t142 58 65 20 29-4q24-4 33-15t9-33q0-20-6-40t-28-30l-262-126-8-8-220-94q-12-4-14-20t-2-26q0-16 4-58t8-87 9-80 7-35h2l2 2q22 16 70 55t98 79 88 71 40 31q22 0 40-22t18-46-10-54-32-46L982 814q-16-20-39-37t-57-47l-40-36v-10l-1-22-1-25v-21q0-72 10-143t10-143h8q2 0 18 16t24 26q4 6 19 26t51 66 96 122 154 192q8 8 23 24t19 16q6 6 25 5t27-5q10-4 26-22t16-34q0-24-25-63t-59-81-68-81-52-63q-28-44-67-107t-85-120-101-98-117-41q-30 0-43 10t-33 36q-8 30-15 60t-11 58L566 548h-18q-76-58-162-114t-176-96q-14-72-17-146t1-148q-16-22-32-33T118 0 76 13 56 45t-6 41zm178 428q60 24 117 64t109 74q6 4 15 8t17 10 20 14v16l-184 524-8 8q-6-12-15-68t-20-145-24-205-27-248v-52z"/><glyph unicode="Ç" horiz-adv-x="862" d="M46 258v48q24 200 38 308t20 160q8 60 8 70 18 62 38 134t53 134 85 104 134 42q36 0 65-5t55-17 51-29 53-41q20-18 23-22t3-24q0-26-18-50t-52-24q-28 0-46 13t-35 30-36 30-49 13q-32 0-56-17t-41-43-26-58-13-60l-94-640q0-4-1-19t-1-23v-35l4-42 14-36 30-15q12 0 22 8 96 64 165 149t131 181q2 4 11 19t18 32 17 34 12 25q12 26 18 54t15 52 27 39 56 15q28 0 54-24t26-56v-4q-50-144-129-266T520 160Q460 88 382 44T208 0h-10Q108 34 77 101T46 258zm40-440q12 66 40 120t63 90 70 51 60 4 33-52-12-115q-12-14-30-39t-18-29v-2q52-10 116-7t125-3 114-34 85-102q18-84-2-129t-74-72-138-48-190-59q-4-6-19-8t-25-2q-28 0-57 24t-29 54q0 10 1 18t9 16q24 30 69 40t92 17 87 21 56 56q16 36-5 52t-57 20-72 1-50-5q-28 0-69 4t-80 17-66 37-27 64z"/><glyph unicode="È" d="M46 1158q0 64 26 90t92 26q14 0 23-12t21-12h8q6 2 18 5t16 3q168 72 262 112t142 58 65 20 29-4q24-4 33-15t9-33q0-20-6-40t-28-30l-262-126-8-8-220-94q-12-4-14-20t-2-26q0-16 4-58t8-87 9-80 7-35h2l2 2q22 16 70 55t98 79 88 71 40 31q22 0 40-22t18-46-10-54-32-46L282 584v-10l-1-22-1-25v-21q0-72 10-143t10-143h8q2 0 18 16t24 26q4 6 19 26t51 66 96 122 154 192q8 8 23 24t19 16q6 6 25 5t27-5q10-4 26-22t16-34q0-24-25-63t-59-81-68-81-52-63q-28-44-67-107t-85-120-101-98T232-2q-30 0-43 10t-33 36q-20 80-30 151t-14 151q-2 46 0 79t-8 73q-2 8-9 12t-14 10-13 15-6 29q0 16 7 28t14 23 14 24 7 31v30q0 20-4 68t-8 102-7 102-5 66q-2 34-18 60t-16 60zm107 566q-1 14 11 30 22 30 50 38t60-14q30-42 62-66t59-47 43-51 10-76q-22-36-57-30t-71 31-69 58-49 51l-22 22-19 26-8 28z"/><glyph unicode="É" d="M46 1158q0 64 26 90t92 26q14 0 23-12t21-12h8q6 2 18 5t16 3q168 72 262 112t142 58 65 20 29-4q24-4 33-15t9-33q0-20-6-40t-28-30l-262-126-8-8-220-94q-12-4-14-20t-2-26q0-16 4-58t8-87 9-80 7-35h2l2 2q22 16 70 55t98 79 88 71 40 31q22 0 40-22t18-46-10-54-32-46L282 584v-10l-1-22-1-25v-21q0-72 10-143t10-143h8q2 0 18 16t24 26q4 6 19 26t51 66 96 122 154 192q8 8 23 24t19 16q6 6 25 5t27-5q10-4 26-22t16-34q0-24-25-63t-59-81-68-81-52-63q-28-44-67-107t-85-120-101-98T232-2q-30 0-43 10t-33 36q-20 80-30 151t-14 151q-2 46 0 79t-8 73q-2 8-9 12t-14 10-13 15-6 29q0 16 7 28t14 23 14 24 7 31v30q0 20-4 68t-8 102-7 102-5 66q-2 34-18 60t-16 60zm182 284q-6 52 9 82t40 54 55 50 58 72q30 24 56 16t48-42q12-18 11-33t-9-30-19-27-19-24q-16-20-46-55t-64-62-67-33-53 32z"/><glyph unicode="Ê" d="M46 1158q0 64 26 90t92 26q14 0 23-12t21-12h8q6 2 18 5t16 3q168 72 262 112t142 58 65 20 29-4q24-4 33-15t9-33q0-20-6-40t-28-30l-262-126-8-8-220-94q-12-4-14-20t-2-26q0-16 4-58t8-87 9-80 7-35h2l2 2q22 16 70 55t98 79 88 71 40 31q22 0 40-22t18-46-10-54-32-46L282 584v-10l-1-22-1-25v-21q0-72 10-143t10-143h8q2 0 18 16t24 26q4 6 19 26t51 66 96 122 154 192q8 8 23 24t19 16q6 6 25 5t27-5q10-4 26-22t16-34q0-24-25-63t-59-81-68-81-52-63q-28-44-67-107t-85-120-101-98T232-2q-30 0-43 10t-33 36q-20 80-30 151t-14 151q-2 46 0 79t-8 73q-2 8-9 12t-14 10-13 15-6 29q0 16 7 28t14 23 14 24 7 31v30q0 20-4 68t-8 102-7 102-5 66q-2 34-18 60t-16 60zm80 376l166 292q2 4 7 17t11 27 12 27 8 19q8 16 29 19t41 3q16 0 28-3t24-15q6-10 23-35t37-52 37-52 23-33q2-2 8-9t6-9q6-8 20-29l30-45 30-46 20-30q6-10 7-15t1-15q0-22-18-30t-48-8q-26 0-47 11t-31 27l-134 198-8-6q-6-8-12-22t-21-42-41-73-72-117q-4-4-21-10t-23-6q-12 0-31 5t-35 13-25 19-1 25z"/><glyph unicode="Ë" d="M46 1158q0 64 26 90t92 26q14 0 23-12t21-12h8q6 2 18 5t16 3q168 72 262 112t142 58 65 20 29-4q24-4 33-15t9-33q0-20-6-40t-28-30l-262-126-8-8-220-94q-12-4-14-20t-2-26q0-16 4-58t8-87 9-80 7-35h2l2 2q22 16 70 55t98 79 88 71 40 31q22 0 40-22t18-46-10-54-32-46L282 584v-10l-1-22-1-25v-21q0-72 10-143t10-143h8q2 0 18 16t24 26q4 6 19 26t51 66 96 122 154 192q8 8 23 24t19 16q6 6 25 5t27-5q10-4 26-22t16-34q0-24-25-63t-59-81-68-81-52-63q-28-44-67-107t-85-120-101-98T232-2q-30 0-43 10t-33 36q-20 80-30 151t-14 151q-2 46 0 79t-8 73q-2 8-9 12t-14 10-13 15-6 29q0 16 7 28t14 23 14 24 7 31v30q0 20-4 68t-8 102-7 102-5 66q-2 34-18 60t-16 60zm118 394q0 28 21 52t49 24q34 0 55-18t41-40v-6q0-34-23-61t-61-27q-26 0-54 24t-28 52zm258 0q0 28 21 52t49 24q34 0 55-18t41-40v-6q0-34-23-61t-61-27q-26 0-54 24t-28 52z"/><glyph unicode="Ì" horiz-adv-x="308" d="M13 1402q-1 14 11 30 22 30 50 38t60-14q30-42 62-66t59-47 43-51 10-76q-22-36-57-30t-71 31-69 58-49 51l-22 22-19 26-8 28zm33-516v246q16 22 29 29t37 7q32 0 61-18t33-52q8-56 9-113t0-114l-2-114 3-113q8-136 25-282t17-282q0-40-16-60T180 0q-38 0-58 26T93 88t-11 73-2 59q0 16-3 67t-6 120-7 146-8 146-7 120-3 67z"/><glyph unicode="Í" horiz-adv-x="308" d="M16 1258q-6 52 9 82t40 54 55 50 58 72q30 24 56 16t48-42q12-18 11-33t-9-30-19-27-19-24q-16-20-46-55t-64-62-67-33-53 32zm30-372v246q16 22 29 29t37 7q32 0 61-18t33-52q8-56 9-113t0-114l-2-114 3-113q8-136 25-282t17-282q0-40-16-60T180 0q-38 0-58 26T93 88t-11 73-2 59q0 16-3 67t-6 120-7 146-8 146-7 120-3 67z"/><glyph unicode="Î" horiz-adv-x="308" d="M-118 1350l166 292q2 4 7 17t11 27 12 27 8 19q8 16 29 19t41 3q16 0 28-3t24-15q6-10 23-35t37-52 37-52 23-33q2-2 8-9t6-9q6-8 20-29l30-45 30-46 20-30q6-10 7-15t1-15q0-22-18-30t-48-8q-26 0-47 11t-31 27l-134 198-8-6q-6-8-12-22t-21-42-41-73-72-117q-4-4-21-10t-23-6q-12 0-31 5t-35 13-25 19-1 25zM46 886v246q16 22 29 29t37 7q32 0 61-18t33-52q8-56 9-113t0-114l-2-114 3-113q8-136 25-282t17-282q0-40-16-60T180 0q-38 0-58 26T93 88t-11 73-2 59q0 16-3 67t-6 120-7 146-8 146-7 120-3 67z"/><glyph unicode="Ï" horiz-adv-x="308" d="M-56 1420q0 28 21 52t49 24q34 0 55-18t41-40v-6q0-34-23-61t-61-27q-26 0-54 24t-28 52zM46 886v246q16 22 29 29t37 7q32 0 61-18t33-52q8-56 9-113t0-114l-2-114 3-113q8-136 25-282t17-282q0-40-16-60T180 0q-38 0-58 26T93 88t-11 73-2 59q0 16-3 67t-6 120-7 146-8 146-7 120-3 67zm156 534q0 28 21 52t49 24q34 0 55-18t41-40v-6q0-34-23-61t-61-27q-26 0-54 24t-28 52z"/><glyph unicode="Ð" horiz-adv-x="1046" d="M36 978v60q10 6 17 17t11 19l202 100 8 10q-4 56 6 90t70 34q16 0 35-6t36-16 26-26 5-36q100-4 198-15t176-48 127-109 49-198q0-114-44-228T832 430L452 52q-28-28-47-40T350 0q-30 0-49 17t-19 47q0 18 13 32t13 30q0 4-8 10t-10 8q-20 30-22 68t-2 72v160h-4q-12 0-39 6t-53 17-46 24-20 27q0 18 20 28t46 16 52 8 40 6h4q2 110 3 218t1 218q-20 0-38-9t-38-20-42-20-48-9H72q-4 6-20 11t-16 13zm416-730l8 6q2 2 15 13t29 26 32 29 26 24q46 48 97 102t93 115 69 128 27 141q0 70-26 119t-69 80-101 45-124 14q-6 0-35-3t-41-13V604l80 12q34 0 64-12t30-52q0-10-13-22t-29-22-34-17-26-3l-72-12V248z"/><glyph unicode="Ñ" horiz-adv-x="890" d="M-10 1562q0 10 1 17t3 17q14 42 29 84t36 79 48 65 63 40q14 0 26-3t24-19l114-144q16-10 27-24t31-14q14 0 26 22t18 32q12 18 21 40t20 42 24 33 33 13q22 0 29-18t7-46q0-42-14-89t-37-85-51-63-58-25q-36-2-68 16t-61 45-57 57-54 52q-20 0-37-28t-32-61-30-60-29-27-33 14-19 38zM46 76v174q0 122 5 245t11 246 9 246-1 245q6 22 22 33t38 11q42 0 64-15t32-41 12-58l4-64q24-44 57-85t59-83q0-2 3-9t5-7q12-18 31-47t37-56 31-47l13-20 8-10 116-168q8-8 14-8h4q-26 212-42 433t-16 437v100q16 26 54 26t56-18 24-45 6-58 2-57q0-2 2-7t5-22 6-52 8-97 10-156 13-230v-36l68-446q2-16 17-49t15-51q0-42-24-68t-68-26q-6 0-16 5t-20 11-19 13-13 11L366 634q-2 0-4 7t-4 11q-12 18-32 45t-38 54-32 47-14 22l-10 8q-10-190-16-383t0-385q-4-24-25-42T148 0q-40 0-63 21T46 76z"/><glyph unicode="Ò" horiz-adv-x="660" d="M43 547q1 77 4 169t14 186 32 181 55 151q12 54 58 75t130 25q54 0 92-28t65-69 47-89 36-86v-10q14-40 21-119t10-166 3-167V478q0-60-16-143t-51-157-91-126T318 0q-66 0-117 34t-86 87-53 115-18 118q2 12 0 64t-1 129zm108 1079q-1 14 11 30 22 30 50 38t60-14q30-42 62-66t59-47 43-51 10-76q-22-36-57-30t-71 31-69 58-49 51l-22 22-19 26-8 28zm50-1077q3-153 37-329 4-22 23-45t45-23h16q84 76 110 175t26 209q0 26-2 80t-7 121-13 141-20 139-28 113-38 66q-2-2-5-8t-3-8q-42-52-76-142t-51-213-14-276z"/><glyph unicode="Ó" horiz-adv-x="660" d="M43 547q1 77 4 169t14 186 32 181 55 151q12 54 58 75t130 25q54 0 92-28t65-69 47-89 36-86v-10q14-40 21-119t10-166 3-167V478q0-60-16-143t-51-157-91-126T318 0q-66 0-117 34t-86 87-53 115-18 118q2 12 0 64t-1 129zm77 883q-6 52 9 82t40 54 55 50 58 72q30 24 56 16t48-42q12-18 11-33t-9-30-19-27-19-24q-16-20-46-55t-64-62-67-33-53 32zm81-881q3-153 37-329 4-22 23-45t45-23h16q84 76 110 175t26 209q0 26-2 80t-7 121-13 141-20 139-28 113-38 66q-2-2-5-8t-3-8q-42-52-76-142t-51-213-14-276z"/><glyph unicode="Ô" horiz-adv-x="660" d="M16 1482l166 292q2 4 7 17t11 27 12 27 8 19q8 16 29 19t41 3q16 0 28-3t24-15q6-10 23-35t37-52 37-52 23-33q2-2 8-9t6-9q6-8 20-29l30-45 30-46 20-30q6-10 7-15t1-15q0-22-18-30t-48-8q-26 0-47 11t-31 27l-134 198-8-6q-6-8-12-22t-21-42-41-73-72-117q-4-4-21-10t-23-6q-12 0-31 5t-35 13-25 19-1 25zm27-935q1 77 4 169t14 186 32 181 55 151q12 54 58 75t130 25q54 0 92-28t65-69 47-89 36-86v-10q14-40 21-119t10-166 3-167V478q0-60-16-143t-51-157-91-126T318 0q-66 0-117 34t-86 87-53 115-18 118q2 12 0 64t-1 129zm158 2q3-153 37-329 4-22 23-45t45-23h16q84 76 110 175t26 209q0 26-2 80t-7 121-13 141-20 139-28 113-38 66q-2-2-5-8t-3-8q-42-52-76-142t-51-213-14-276z"/><glyph unicode="Õ" horiz-adv-x="660" d="M43 547q1 77 4 169t14 186 32 181 55 151q12 54 58 75t130 25q54 0 92-28t65-69 47-89 36-86v-10q14-40 21-119t10-166 3-167V478q0-60-16-143t-51-157-91-126T318 0q-66 0-117 34t-86 87-53 115-18 118q2 12 0 64t-1 129zm33 877q0 10 1 17t3 17q14 42 29 84t36 79 48 65 63 40q14 0 26-3t24-19l114-144q16-10 27-24t31-14q14 0 26 22t18 32q12 18 21 40t20 42 24 33 33 13q22 0 29-18t7-46q0-42-14-89t-37-85-51-63-58-25q-36-2-68 16t-61 45-57 57-54 52q-20 0-37-28t-32-61-30-60-29-27-33 14-19 38zm125-875q3-153 37-329 4-22 23-45t45-23h16q84 76 110 175t26 209q0 26-2 80t-7 121-13 141-20 139-28 113-38 66q-2-2-5-8t-3-8q-42-52-76-142t-51-213-14-276z"/><glyph unicode="Ö" horiz-adv-x="660" d="M43 547q1 77 4 169t14 186 32 181 55 151q12 54 58 75t130 25q54 0 92-28t65-69 47-89 36-86v-10q14-40 21-119t10-166 3-167V478q0-60-16-143t-51-157-91-126T318 0q-66 0-117 34t-86 87-53 115-18 118q2 12 0 64t-1 129zm51 971q0 28 21 52t49 24q34 0 55-18t41-40v-6q0-34-23-61t-61-27q-26 0-54 24t-28 52zm107-969q3-153 37-329 4-22 23-45t45-23h16q84 76 110 175t26 209q0 26-2 80t-7 121-13 141-20 139-28 113-38 66q-2-2-5-8t-3-8q-42-52-76-142t-51-213-14-276zm151 969q0 28 21 52t49 24q34 0 55-18t41-40v-6q0-34-23-61t-61-27q-26 0-54 24t-28 52z"/><glyph unicode="×" horiz-adv-x="892" d="M136 594v6q0 22 16 33t38 11q32 6 58-3t49-28 44-43 41-44q4 12 14 39t24 58 32 58 36 38 36 0 34-59v-8l-70-212 222-214q0-2 2-6t2-6 2-4v-2q0-22-18-33t-38-11q-22 0-54 17t-64 38-60 39-40 18h-6q-30-26-44-47t-27-39-34-32-63-24q-20 0-42 11t-22 31q0 26 23 53t50 54 47 56 14 59q-26 16-53 41t-53 52-50 54-46 49z"/><glyph unicode="Ø" horiz-adv-x="660" d="M43 547q1 77 4 169t14 186 32 181 55 151q12 54 58 75t130 25q54 0 92-28t65-69 47-89 36-86v-10q14-40 21-119t10-166 3-167V478q0-60-16-143t-51-157-91-126T318 0q-66 0-117 34t-86 87-53 115-18 118q2 12 0 64t-1 129zm56-654q9 81 24.5 153T156 200v13l270 1254q6 29 21 40t47 11h4q36-17 46.5-28t10.5-45q0-20-6-42t-9-43q-2-5-7-23.5t-10.5-40.5-10-40.5-6.5-24.5v-6L292 264q-17-96-37-192t-35-193q-6-20-24-29.5t-39-9.5q-20 0-39 13t-19 35v5zm102 656q3-153 37-329 4-22 23-45t45-23h16q84 76 110 175t26 209q0 26-2 80t-7 121-13 141-20 139-28 113-38 66q-2-2-5-8t-3-8q-42-52-76-142t-51-213-14-276z"/><glyph unicode="Ù" d="M78 358v52q2 16 5 48t8 73 9 86 9 86 8 73 5 48q-8 20-5 41t14 38 29 28 40 11q6 0 21-4t31-12 28-17 12-17v-76q-28-216-36-344t-6-199 12-97 20-36q24-10 47-5t55 37 77 99 109 179q4 6 9 22t7 22q-4 132-1 266t9 266q8 20 26 32t38 12q8 0 24-6t32-17 28-23 12-24V410q14-90 22-181t22-181q0-10 5-41t11-67l11-66 7-38v-24q0-72-78-78-34-4-57 29t-37 86-23 119-15 128-12 113-16 73q-22-42-53-94t-72-99-88-79-101-32q-68 0-108 40t-61 99-27 124-6 117zm199 1044q-1 14 11 30 22 30 50 38t60-14q30-42 62-66t59-47 43-51 10-76q-22-36-57-30t-71 31-69 58-49 51l-22 22-19 26-8 28z"/><glyph unicode="Ú" d="M78 358v52q2 16 5 48t8 73 9 86 9 86 8 73 5 48q-8 20-5 41t14 38 29 28 40 11q6 0 21-4t31-12 28-17 12-17v-76q-28-216-36-344t-6-199 12-97 20-36q24-10 47-5t55 37 77 99 109 179q4 6 9 22t7 22q-4 132-1 266t9 266q8 20 26 32t38 12q8 0 24-6t32-17 28-23 12-24V410q14-90 22-181t22-181q0-10 5-41t11-67l11-66 7-38v-24q0-72-78-78-34-4-57 29t-37 86-23 119-15 128-12 113-16 73q-22-42-53-94t-72-99-88-79-101-32q-68 0-108 40t-61 99-27 124-6 117zm202 900q-6 52 9 82t40 54 55 50 58 72q30 24 56 16t48-42q12-18 11-33t-9-30-19-27-19-24q-16-20-46-55t-64-62-67-33-53 32z"/><glyph unicode="Û" d="M78 358v52q2 16 5 48t8 73 9 86 9 86 8 73 5 48q-8 20-5 41t14 38 29 28 40 11q6 0 21-4t31-12 28-17 12-17v-76q-28-216-36-344t-6-199 12-97 20-36q24-10 47-5t55 37 77 99 109 179q4 6 9 22t7 22q-4 132-1 266t9 266q8 20 26 32t38 12q8 0 24-6t32-17 28-23 12-24V410q14-90 22-181t22-181q0-10 5-41t11-67l11-66 7-38v-24q0-72-78-78-34-4-57 29t-37 86-23 119-15 128-12 113-16 73q-22-42-53-94t-72-99-88-79-101-32q-68 0-108 40t-61 99-27 124-6 117zm70 992l166 292q2 4 7 17t11 27 12 27 8 19q8 16 29 19t41 3q16 0 28-3t24-15q6-10 23-35t37-52 37-52 23-33q2-2 8-9t6-9q6-8 20-29l30-45 30-46 20-30q6-10 7-15t1-15q0-22-18-30t-48-8q-26 0-47 11t-31 27l-134 198-8-6q-6-8-12-22t-21-42-41-73-72-117q-4-4-21-10t-23-6q-12 0-31 5t-35 13-25 19-1 25z"/><glyph unicode="Ü" d="M78 358v52q2 16 5 48t8 73 9 86 9 86 8 73 5 48q-8 20-5 41t14 38 29 28 40 11q6 0 21-4t31-12 28-17 12-17v-76q-28-216-36-344t-6-199 12-97 20-36q24-10 47-5t55 37 77 99 109 179q4 6 9 22t7 22q-4 132-1 266t9 266q8 20 26 32t38 12q8 0 24-6t32-17 28-23 12-24V410q14-90 22-181t22-181q0-10 5-41t11-67l11-66 7-38v-24q0-72-78-78-34-4-57 29t-37 86-23 119-15 128-12 113-16 73q-22-42-53-94t-72-99-88-79-101-32q-68 0-108 40t-61 99-27 124-6 117zm132 1062q0 28 21 52t49 24q34 0 55-18t41-40v-6q0-34-23-61t-61-27q-26 0-54 24t-28 52zm258 0q0 28 21 52t49 24q34 0 55-18t41-40v-6q0-34-23-61t-61-27q-26 0-54 24t-28 52z"/><glyph unicode="Ý" horiz-adv-x="848" d="M12 1014q0 34 26 49t56 15q20 0 42-5t38-21q76-84 170-168t192-144l8 26 84 540q4 22 25 28t39 6q52 0 79-25t27-83v-4q0-2-3-10t-6-18-5-19-2-11q-6-24-16-93t-22-164-26-209-28-229-28-222-26-189q2-20 3-46t-7-50-25-40-47-16q-38 0-67 20t-41 56q2 10 5 38t8 59 9 58 6 39q10 90 25 179t15 179v30l-32 16q-8 4-40 26t-71 50-77 57-58 47q-12 8-39 31t-56 50-55 52-36 35q-16 16-30 37t-14 43zm270 244q-6 52 9 82t40 54 55 50 58 72q30 24 56 16t48-42q12-18 11-33t-9-30-19-27-19-24q-16-20-46-55t-64-62-67-33-53 32z"/><glyph unicode="Þ" horiz-adv-x="768" d="M14 862v4q0 16 11 33t23 29v226l-2 76-6 76-12 126q0 26 18 39t38 13q56 10 85-7t40-52 10-80-4-89-4-82 13-58q26 10 27 9t0-2 4 4 37 29q44 34 103 43t111 9q122-18 170-75t42-140-57-184-127-208-168-212-178-197q2-26 3-60t0-67-4-61-11-42q-10-20-25-29t-31-7-30 16-22 42q-6 18-9 50t-5 73-1 87 3 94v522zm210-154q0-6 1-28t3-47 3-47 1-28v-21l1-32 1-32v-21q22 4 62 56t82 121 78 139 54 110q8 20 16 48t11 57-4 53-29 38q-36 0-77-18t-80-46-70-61-45-63q-2-10-3-35t-2-53-2-54-1-36z"/><glyph unicode="ß" horiz-adv-x="1030" d="M122 956q0 56 33 102t83 82 108 61 106 40 78 21 26 2q14 10 41 4t53-22 46-38 20-46q0-44-12-81t-30-72-38-69-36-70q8 0 30-3t46-5 46-5 30-3q32-6 75-20t80-38 63-57 26-75q0-46-17-92t-41-82q-8-12-24-34l-32-44-29-39-15-19L472 38l-14 178q26 22 60 51t50 39q34 28 81 68t89 85 71 93 29 94q0 30-20 47t-49 27-60 13-53 3q-42 0-70-10t-51-27-44-40-51-49q-2 0-9-4t-9-4l-44 238q26 28 49 54t47 60q6 12 12 32t5 37-13 26-40 1l-19-18-40-40-39-41-18-21 8-406 42-348h2l8-360q-14 0-41 3t-55 9-49 16-23 26l-38 520v16q-4 84-9 176t-15 178q-8 0-14 25t-9 58-5 66-2 47z"/><glyph unicode="à" horiz-adv-x="798" d="M36 152q2 204 30 371t88 294 154 211 228 120q4 0 15 1t15 1q60 2 87-55t40-180 18-316 21-463q6-22 7-38t1-38q0-30-18-45T676 0q-58 0-82 32t-32 86q0 2-3 32t-8 69-9 79-6 66v8q-4 20-5 50t-5 58q-4 34-6 68l-8 10q-18-32-41-77t-49-96-57-102-64-93-69-71-74-35q-16 0-36 3T82 97t-33 20-13 35zm188 228q2 0 5 4t5 6q124 120 175 259t59 305q-54-40-106-108t-74-132q-10-30-22-82t-21-103-15-94-6-55zm31 1022q-1 14 11 30 22 30 50 38t60-14q30-42 62-66t59-47 43-51 10-76q-22-36-57-30t-71 31-69 58-49 51l-22 22-19 26-8 28z"/><glyph unicode="á" horiz-adv-x="798" d="M36 152q2 204 30 371t88 294 154 211 228 120q4 0 15 1t15 1q60 2 87-55t40-180 18-316 21-463q6-22 7-38t1-38q0-30-18-45T676 0q-58 0-82 32t-32 86q0 2-3 32t-8 69-9 79-6 66v8q-4 20-5 50t-5 58q-4 34-6 68l-8 10q-18-32-41-77t-49-96-57-102-64-93-69-71-74-35q-16 0-36 3T82 97t-33 20-13 35zm188 228q2 0 5 4t5 6q124 120 175 259t59 305q-54-40-106-108t-74-132q-10-30-22-82t-21-103-15-94-6-55zm34 878q-6 52 9 82t40 54 55 50 58 72q30 24 56 16t48-42q12-18 11-33t-9-30-19-27-19-24q-16-20-46-55t-64-62-67-33-53 32z"/><glyph unicode="â" horiz-adv-x="798" d="M36 152q2 204 30 371t88 294 154 211 228 120q4 0 15 1t15 1q60 2 87-55t40-180 18-316 21-463q6-22 7-38t1-38q0-30-18-45T676 0q-58 0-82 32t-32 86q0 2-3 32t-8 69-9 79-6 66v8q-4 20-5 50t-5 58q-4 34-6 68l-8 10q-18-32-41-77t-49-96-57-102-64-93-69-71-74-35q-16 0-36 3T82 97t-33 20-13 35zm88 1198l166 292q2 4 7 17t11 27 12 27 8 19q8 16 29 19t41 3q16 0 28-3t24-15q6-10 23-35t37-52 37-52 23-33q2-2 8-9t6-9q6-8 20-29l30-45 30-46 20-30q6-10 7-15t1-15q0-22-18-30t-48-8q-26 0-47 11t-31 27l-134 198-8-6q-6-8-12-22t-21-42-41-73-72-117q-4-4-21-10t-23-6q-12 0-31 5t-35 13-25 19-1 25zm100-970q2 0 5 4t5 6q124 120 175 259t59 305q-54-40-106-108t-74-132q-10-30-22-82t-21-103-15-94-6-55z"/><glyph unicode="ã" horiz-adv-x="798" d="M36 152q2 204 30 371t88 294 154 211 228 120q4 0 15 1t15 1q60 2 87-55t40-180 18-316 21-463q6-22 7-38t1-38q0-30-18-45T676 0q-58 0-82 32t-32 86q0 2-3 32t-8 69-9 79-6 66v8q-4 20-5 50t-5 58q-4 34-6 68l-8 10q-18-32-41-77t-49-96-57-102-64-93-69-71-74-35q-16 0-36 3T82 97t-33 20-13 35zm152 1088q0 10 1 17t3 17q14 42 29 84t36 79 48 65 63 40q14 0 26-3t24-19l114-144q16-10 27-24t31-14q14 0 26 22t18 32q12 18 21 40t20 42 24 33 33 13q22 0 29-18t7-46q0-42-14-89t-37-85-51-63-58-25q-36-2-68 16t-61 45-57 57-54 52q-20 0-37-28t-32-61-30-60-29-27-33 14-19 38zm36-860q2 0 5 4t5 6q124 120 175 259t59 305q-54-40-106-108t-74-132q-10-30-22-82t-21-103-15-94-6-55z"/><glyph unicode="ä" horiz-adv-x="798" d="M36 152q2 204 30 371t88 294 154 211 228 120q4 0 15 1t15 1q60 2 87-55t40-180 18-316 21-463q6-22 7-38t1-38q0-30-18-45T676 0q-58 0-82 32t-32 86q0 2-3 32t-8 69-9 79-6 66v8q-4 20-5 50t-5 58q-4 34-6 68l-8 10q-18-32-41-77t-49-96-57-102-64-93-69-71-74-35q-16 0-36 3T82 97t-33 20-13 35zm150 1268q0 28 21 52t49 24q34 0 55-18t41-40v-6q0-34-23-61t-61-27q-26 0-54 24t-28 52zm38-1040q2 0 5 4t5 6q124 120 175 259t59 305q-54-40-106-108t-74-132q-10-30-22-82t-21-103-15-94-6-55zm220 1040q0 28 21 52t49 24q34 0 55-18t41-40v-6q0-34-23-61t-61-27q-26 0-54 24t-28 52z"/><glyph unicode="å" horiz-adv-x="798" d="M36 152q2 204 30 371t88 294 154 211 228 120q4 0 15 1t15 1q60 2 87-55t40-180 18-316 21-463q6-22 7-38t1-38q0-30-18-45T676 0q-58 0-82 32t-32 86q0 2-3 32t-8 69-9 79-6 66v8q-4 20-5 50t-5 58q-4 34-6 68l-8 10q-18-32-41-77t-49-96-57-102-64-93-69-71-74-35q-16 0-36 3T82 97t-33 20-13 35zm188 228q2 0 5 4t5 6q124 120 175 259t59 305q-54-40-106-108t-74-132q-10-30-22-82t-21-103-15-94-6-55zm48 797q-14 43 21 107t151 148h2q16 0 29 4t31 4q42 0 72-18t49-43 27-54 8-51q0-26-21-59t-54-61-76-48-87-20q-46 2-92 25t-60 66zm112 61q10-30 37-37t55 2 50 30 20 45q-2 50-27 63t-55 1-54-41-26-63z"/><glyph unicode="æ" horiz-adv-x="1444" d="M36 152q2 204 30 371t88 294 154 211 228 120q4 0 15 1t15 1q60 2 87-55t40-180 18-316 21-463q6-22 7-38t1-38q0-30-18-45T676 0q-58 0-82 32t-32 86q0 2-3 32t-8 69-9 79-6 66v8q-4 20-5 50t-5 58q-4 34-6 68l-8 10q-18-32-41-77t-49-96-57-102-64-93-69-71-74-35q-16 0-36 3T82 97t-33 20-13 35zm188 228q2 0 5 4t5 6q124 120 175 259t59 305q-54-40-106-108t-74-132q-10-30-22-82t-21-103-15-94-6-55zm342 160q0 24 11 32t26 11 29 7 20 16q4 12 15 44t23 67 23 66 15 43q14 34 31 69t40 63 54 46 73 18q24 0 59-22t67-53 54-65 22-58q0-30-14-55t-35-46-45-39-44-34q-2 0-8-4t-10-6l-9-9-15-15-15-16-9-10q-6-6-23-19t-37-28-37-28-23-17l-8-16q-4-8-7-35t-7-61-7-69-3-57q0-2 2-4 4-4 6-4 16 0 30 14t30 20l320 296 82 126q10 14 39 31t59 18 53-19 23-78q-4-36-9-56t-17-36-34-33-60-48-94-81-136-130q-32-30-66-62t-71-57-77-41-84-16q-86 0-126 58t-40 134q0 50 3 84t15 88q-22 20-38 35t-16 41zm278 190l132 86q10 8 8 24t-11 28-23 15-26-15q-6-8-21-32t-30-49-25-43-4-14z"/><glyph unicode="ç" horiz-adv-x="708" d="M46 240q-14 60 1 142t48 165 82 157 104 118 112 49 109-51q0-2 2-10t4-33 3-70 1-123q2-4 5-13t3-13q-6-22-23-41t-43-19q-34 0-55 11t-31 53q4 6 2 25t-7 43-9 48-4 38q-2 0-5-3l-5-5q-34-60-63-133t-44-148-10-149 43-134q28 0 52 23t40 43q34 40 67 82t61 88q12 20 18 36t15 26 23 16 42 6q32 0 60-15t28-49q0-46-41-115T531 152 406 43 290-2q-48 0-93 19t-78 51-53 76-20 96zm54-438q12 66 40 120t63 90 70 51 60 4 33-52-12-115q-12-14-30-39t-18-29v-2q52-10 116-7t125-3 114-34 85-102q18-84-2-129t-74-72-138-48-190-59q-4-6-19-8t-25-2q-28 0-57 24t-29 54q0 10 1 18t9 16q24 30 69 40t92 17 87 21 56 56q16 36-5 52t-57 20-72 1-50-5q-28 0-69 4t-80 17-66 37-27 64z"/><glyph unicode="è" horiz-adv-x="890" d="M32 448q0 24 11 32t26 11 29 7 20 16q4 12 15 44t23 67 23 66 15 43q14 34 31 69t40 63 54 46 73 18q24 0 59-22t67-53 54-65 22-58q0-30-14-55t-35-46-45-39-44-34q-2 0-8-4t-10-6l-9-9-15-15-15-16-9-10q-6-6-23-19t-37-28-37-28-23-17l-8-16q-4-8-7-35t-7-61-7-69-3-57q0-2 2-4 4-4 6-4 16 0 30 14t30 20l320 296 82 126q10 14 39 31t59 18 53-19 23-78q-4-36-9-56t-17-36-34-33-60-48-94-81-136-130q-32-30-66-62t-71-57-77-41-84-16q-86 0-126 58T68 200q0 50 3 84t15 88q-22 20-38 35t-16 41zm269 954q-1 14 11 30 22 30 50 38t60-14q30-42 62-66t59-47 43-51 10-76q-22-36-57-30t-71 31-69 58-49 51l-22 22-19 26-8 28zm9-764l132 86q10 8 8 24t-11 28-23 15-26-15q-6-8-21-32t-30-49-25-43-4-14z"/><glyph unicode="é" horiz-adv-x="890" d="M32 448q0 24 11 32t26 11 29 7 20 16q4 12 15 44t23 67 23 66 15 43q14 34 31 69t40 63 54 46 73 18q24 0 59-22t67-53 54-65 22-58q0-30-14-55t-35-46-45-39-44-34q-2 0-8-4t-10-6l-9-9-15-15-15-16-9-10q-6-6-23-19t-37-28-37-28-23-17l-8-16q-4-8-7-35t-7-61-7-69-3-57q0-2 2-4 4-4 6-4 16 0 30 14t30 20l320 296 82 126q10 14 39 31t59 18 53-19 23-78q-4-36-9-56t-17-36-34-33-60-48-94-81-136-130q-32-30-66-62t-71-57-77-41-84-16q-86 0-126 58T68 200q0 50 3 84t15 88q-22 20-38 35t-16 41zm198 606q-6 52 9 82t40 54 55 50 58 72q30 24 56 16t48-42q12-18 11-33t-9-30-19-27-19-24q-16-20-46-55t-64-62-67-33-53 32zm80-416l132 86q10 8 8 24t-11 28-23 15-26-15q-6-8-21-32t-30-49-25-43-4-14z"/><glyph unicode="ê" horiz-adv-x="890" d="M32 448q0 24 11 32t26 11 29 7 20 16q4 12 15 44t23 67 23 66 15 43q14 34 31 69t40 63 54 46 73 18q24 0 59-22t67-53 54-65 22-58q0-30-14-55t-35-46-45-39-44-34q-2 0-8-4t-10-6l-9-9-15-15-15-16-9-10q-6-6-23-19t-37-28-37-28-23-17l-8-16q-4-8-7-35t-7-61-7-69-3-57q0-2 2-4 4-4 6-4 16 0 30 14t30 20l320 296 82 126q10 14 39 31t59 18 53-19 23-78q-4-36-9-56t-17-36-34-33-60-48-94-81-136-130q-32-30-66-62t-71-57-77-41-84-16q-86 0-126 58T68 200q0 50 3 84t15 88q-22 20-38 35t-16 41zm52 616l166 292q2 4 7 17t11 27 12 27 8 19q8 16 29 19t41 3q16 0 28-3t24-15q6-10 23-35t37-52 37-52 23-33q2-2 8-9t6-9q6-8 20-29l30-45 30-46 20-30q6-10 7-15t1-15q0-22-18-30t-48-8q-26 0-47 11t-31 27l-134 198-8-6q-6-8-12-22t-21-42-41-73-72-117q-4-4-21-10t-23-6q-12 0-31 5t-35 13-25 19-1 25zm226-426l132 86q10 8 8 24t-11 28-23 15-26-15q-6-8-21-32t-30-49-25-43-4-14z"/><glyph unicode="ë" horiz-adv-x="890" d="M32 448q0 24 11 32t26 11 29 7 20 16q4 12 15 44t23 67 23 66 15 43q14 34 31 69t40 63 54 46 73 18q24 0 59-22t67-53 54-65 22-58q0-30-14-55t-35-46-45-39-44-34q-2 0-8-4t-10-6l-9-9-15-15-15-16-9-10q-6-6-23-19t-37-28-37-28-23-17l-8-16q-4-8-7-35t-7-61-7-69-3-57q0-2 2-4 4-4 6-4 16 0 30 14t30 20l320 296 82 126q10 14 39 31t59 18 53-19 23-78q-4-36-9-56t-17-36-34-33-60-48-94-81-136-130q-32-30-66-62t-71-57-77-41-84-16q-86 0-126 58T68 200q0 50 3 84t15 88q-22 20-38 35t-16 41zm102 680q0 28 21 52t49 24q34 0 55-18t41-40v-6q0-34-23-61t-61-27q-26 0-54 24t-28 52zm176-490l132 86q10 8 8 24t-11 28-23 15-26-15q-6-8-21-32t-30-49-25-43-4-14zm82 490q0 28 21 52t49 24q34 0 55-18t41-40v-6q0-34-23-61t-61-27q-26 0-54 24t-28 52z"/><glyph unicode="ì" horiz-adv-x="346" d="M29 1402q-1 14 11 30 22 30 50 38t60-14q30-42 62-66t59-47 43-51 10-76q-22-36-57-30t-71 31-69 58-49 51l-22 22-19 26-8 28zm17-456v8q0 22 19 37t39 15q30 0 65-10t47-42q18-98 25-198t12-199 14-199 33-198q0-4 3-16t6-26 5-26 2-16v-4q0-2 2-4 0-24-22-48T250 0q-6 2-29 7t-31 9q-6 2-16 9t-19 15-15 18 0 18q-20 200-34 342T82 656 65 809t-11 86-6 39-2 12z"/><glyph unicode="í" horiz-adv-x="346" d="M32 1258q-6 52 9 82t40 54 55 50 58 72q30 24 56 16t48-42q12-18 11-33t-9-30-19-27-19-24q-16-20-46-55t-64-62-67-33-53 32zm14-312q0-2 2-12t6-39 11-86 17-153 24-238 34-342q-6-8 0-18t15-18 19-15 16-9q8-4 31-9t29-7q24-4 46 20t22 48q-2 2-2 4v4q0 4-2 16t-5 26-6 26-3 16q-24 98-33 198t-14 199-12 199-25 198q-12 32-47 42t-65 10q-20 0-39-15t-19-37v-8z"/><glyph unicode="î" horiz-adv-x="346" d="M-100 1350l166 292q2 4 7 17t11 27 12 27 8 19q8 16 29 19t41 3q16 0 28-3t24-15q6-10 23-35t37-52 37-52 23-33q2-2 8-9t6-9q6-8 20-29l30-45 30-46 20-30q6-10 7-15t1-15q0-22-18-30t-48-8q-26 0-47 11t-31 27l-134 198-8-6q-6-8-12-22t-21-42-41-73-72-117q-4-4-21-10t-23-6q-12 0-31 5t-35 13-25 19-1 25zM46 946v8q0 22 19 37t39 15q30 0 65-10t47-42q18-98 25-198t12-199 14-199 33-198q0-4 3-16t6-26 5-26 2-16v-4q0-2 2-4 0-24-22-48T250 0q-6 2-29 7t-31 9q-6 2-16 9t-19 15-15 18 0 18q-20 200-34 342T82 656 65 809t-11 86-6 39-2 12z"/><glyph unicode="ï" horiz-adv-x="346" d="M-38 1420q0 28 21 52t49 24q34 0 55-18t41-40v-6q0-34-23-61t-61-27q-26 0-54 24t-28 52zm84-474v8q0 22 19 37t39 15q30 0 65-10t47-42q18-98 25-198t12-199 14-199 33-198q0-4 3-16t6-26 5-26 2-16v-4q0-2 2-4 0-24-22-48T250 0q-6 2-29 7t-31 9q-6 2-16 9t-19 15-15 18 0 18q-20 200-34 342T82 656 65 809t-11 86-6 39-2 12zm174 474q0 28 21 52t49 24q34 0 55-18t41-40v-6q0-34-23-61t-61-27q-26 0-54 24t-28 52z"/><glyph unicode="ð" horiz-adv-x="742" d="M58 356q0 36 18 72t74 36q128 4 210-52t120-146L342 666l-112-42q-16 24-22 61t-16 53q-2 4 10 8t27 8 27 9 6 9q-42 64-42 113t25 64 64-14 73-121l122 66 66-104q4-6-17-13t-48-14-48-14-17-13q48-70 92-149t73-158 39-152-10-130-76-92T402 2q-74 14-137 50t-109 84-72 105-26 115zm137-104q7-42 59-78 30-22 67-29t59 3 20 37-50 73q-44 62-84 71t-59-13-12-64z"/><glyph unicode="ñ" horiz-adv-x="828" d="M46 90q6 24 11 88t7 148 3 177 0 174-3 140-4 77q0 20 1 41t6 39 18 29 41 11q38 0 71-32t33-68q0-52-5-103t-5-103v-54l8-54q6 16 20 56t31 84 31 83 20 55q14 40 42 77t74 41q30 2 55-16t43-47 30-60 18-53l108-498 84-228q2-2 2-11V70q0-24-11-47T736 0q-34 0-70 19t-50 49q-28 40-47 111t-36 150-31 154-29 120-33 51-42-54L224 64q-10-28-24-39t-46-11q-16 0-34 5T86 34 59 58 46 90zm50 1092q0 10 1 17t3 17q14 42 29 84t36 79 48 65 63 40q14 0 26-3t24-19l114-144q16-10 27-24t31-14q14 0 26 22t18 32q12 18 21 40t20 42 24 33 33 13q22 0 29-18t7-46q0-42-14-89t-37-85-51-63-58-25q-36-2-68 16t-61 45-57 57-54 52q-20 0-37-28t-32-61-30-60-29-27-33 14-19 38z"/><glyph unicode="ò" horiz-adv-x="676" d="M52 300v6l74 514q4 26 23 38t43 12q44 0 70-25t44-61h2q24 0 43 9t47 9q64 0 109-40t73-97 41-123 13-116q0-60-31-134t-82-140T406 42 276-2q-60 0-103 28t-70 71-39 97-12 106zm109 908q-1 14 11 30 22 30 50 38t60-14q30-42 62-66t59-47 43-51 10-76q-22-36-57-30t-71 31-69 58-49 51l-22 22-19 26-8 28zm59-914q4-20 8-46t12-47 23-32 43-1q26 24 56 54t57 64 45 72 18 80q8 68-10 125t-51 82-75 6-84-103q-24-52-33-121t-9-127v-6z"/><glyph unicode="ó" horiz-adv-x="676" d="M52 300v6l74 514q4 26 23 38t43 12q44 0 70-25t44-61h2q24 0 43 9t47 9q64 0 109-40t73-97 41-123 13-116q0-60-31-134t-82-140T406 42 276-2q-60 0-103 28t-70 71-39 97-12 106zm144 770q-6 52 9 82t40 54 55 50 58 72q30 24 56 16t48-42q12-18 11-33t-9-30-19-27-19-24q-16-20-46-55t-64-62-67-33-53 32zm24-776q4-20 8-46t12-47 23-32 43-1q26 24 56 54t57 64 45 72 18 80q8 68-10 125t-51 82-75 6-84-103q-24-52-33-121t-9-127v-6z"/><glyph unicode="ô" horiz-adv-x="676" d="M52 300v6l74 514q4 26 23 38t43 12q44 0 70-25t44-61h2q24 0 43 9t47 9q64 0 109-40t73-97 41-123 13-116q0-60-31-134t-82-140T406 42 276-2q-60 0-103 28t-70 71-39 97-12 106zm24 792l166 292q2 4 7 17t11 27 12 27 8 19q8 16 29 19t41 3q16 0 28-3t24-15q6-10 23-35t37-52 37-52 23-33q2-2 8-9t6-9q6-8 20-29l30-45 30-46 20-30q6-10 7-15t1-15q0-22-18-30t-48-8q-26 0-47 11t-31 27l-134 198-8-6q-6-8-12-22t-21-42-41-73-72-117q-4-4-21-10t-23-6q-12 0-31 5t-35 13-25 19-1 25zm144-798q4-20 8-46t12-47 23-32 43-1q26 24 56 54t57 64 45 72 18 80q8 68-10 125t-51 82-75 6-84-103q-24-52-33-121t-9-127v-6z"/><glyph unicode="õ" horiz-adv-x="676" d="M50 1004q0 10 1 17t3 17q14 42 29 84t36 79 48 65 63 40q14 0 26-3t24-19l114-144q16-10 27-24t31-14q14 0 26 22t18 32q12 18 21 40t20 42 24 33 33 13q22 0 29-18t7-46q0-42-14-89t-37-85-51-63-58-25q-36-2-68 16t-61 45-57 57-54 52q-20 0-37-28t-32-61-30-60-29-27-33 14-19 38zm2-704v6l74 514q4 26 23 38t43 12q44 0 70-25t44-61h2q24 0 43 9t47 9q64 0 109-40t73-97 41-123 13-116q0-60-31-134t-82-140T406 42 276-2q-60 0-103 28t-70 71-39 97-12 106zm168-6q4-20 8-46t12-47 23-32 43-1q26 24 56 54t57 64 45 72 18 80q8 68-10 125t-51 82-75 6-84-103q-24-52-33-121t-9-127v-6z"/><glyph unicode="ö" horiz-adv-x="676" d="M52 300v6l74 514q4 26 23 38t43 12q44 0 70-25t44-61h2q24 0 43 9t47 9q64 0 109-40t73-97 41-123 13-116q0-60-31-134t-82-140T406 42 276-2q-60 0-103 28t-70 71-39 97-12 106zm80 754q0 28 21 52t49 24q34 0 55-18t41-40v-6q0-34-23-61t-61-27q-26 0-54 24t-28 52zm88-760q4-20 8-46t12-47 23-32 43-1q26 24 56 54t57 64 45 72 18 80q8 68-10 125t-51 82-75 6-84-103q-24-52-33-121t-9-127v-6zm170 760q0 28 21 52t49 24q34 0 55-18t41-40v-6q0-34-23-61t-61-27q-26 0-54 24t-28 52z"/><glyph unicode="÷" horiz-adv-x="752" d="M28 504q0 34 24 49t52 21l502 50q34 0 64-12t30-52q0-10-13-22t-29-22-34-17-26-3l-494-54q-26 0-51 17t-25 45zm198-196q0 28 17 55t45 27q18 0 39-8t39-22 28-33 8-41q-4-28-30-44t-48-16q-36 0-67 21t-31 61zm8 408q-4 40 32 58t68 18q8 0 19-9t22-22 19-26 8-19q8-28-18-47t-50-19q-28 0-62 16t-38 50z"/><glyph unicode="ø" horiz-adv-x="676" d="M52 300v6l74 514q4 26 23 38t43 12q44 0 70-25t44-61h2q24 0 43 9t47 9q64 0 109-40t73-97 41-123 13-116q0-60-31-134t-82-140T406 42 276-2q-60 0-103 28t-70 71-39 97-12 106zM157-61q8 55 21 104t28 104v9l234 850q4 20 17.5 27.5t40.5 7.5h4q31-12 40-19.5t9-30.5q0-13-5-28t-8-29q-2-4-6-16.5t-9-27.5-9-27.5-6-16.5v-4L323 191q-14-66-31.5-131T261-71q-5-13-20.5-19.5T207-97t-34 8.5T157-65v4zm63 355q4-20 8-46t12-47 23-32 43-1q26 24 56 54t57 64 45 72 18 80q8 68-10 125t-51 82-75 6-84-103q-24-52-33-121t-9-127v-6z"/><glyph unicode="ù" horiz-adv-x="700" d="M28 350l16 484q-2 14 7 29t24 28 34 21 35 8q46 0 78-29t32-75v-20q-22-36-38-94t-25-125-11-137 5-128 23-99 42-49q10 0 31 10t45 38 50 79 46 135 30 204 6 288q8 22 23 24t31 2q18 0 30-1t26-15q10-10 22-30t12-22l34-886q0-30-16-50t-46-20q-10 0-24 2t-28 8-25 15-13 21l-34 200-8 24q-14-30-28-65t-32-63-44-47-66-19q-70 0-116 35t-75 88-41 115-12 116zm177 1052q-1 14 11 30 22 30 50 38t60-14q30-42 62-66t59-47 43-51 10-76q-22-36-57-30t-71 31-69 58-49 51l-22 22-19 26-8 28z"/><glyph unicode="ú" horiz-adv-x="700" d="M28 350l16 484q-2 14 7 29t24 28 34 21 35 8q46 0 78-29t32-75v-20q-22-36-38-94t-25-125-11-137 5-128 23-99 42-49q10 0 31 10t45 38 50 79 46 135 30 204 6 288q8 22 23 24t31 2q18 0 30-1t26-15q10-10 22-30t12-22l34-886q0-30-16-50t-46-20q-10 0-24 2t-28 8-25 15-13 21l-34 200-8 24q-14-30-28-65t-32-63-44-47-66-19q-70 0-116 35t-75 88-41 115-12 116zm180 908q-6 52 9 82t40 54 55 50 58 72q30 24 56 16t48-42q12-18 11-33t-9-30-19-27-19-24q-16-20-46-55t-64-62-67-33-53 32z"/><glyph unicode="û" horiz-adv-x="700" d="M28 350l16 484q-2 14 7 29t24 28 34 21 35 8q46 0 78-29t32-75v-20q-22-36-38-94t-25-125-11-137 5-128 23-99 42-49q10 0 31 10t45 38 50 79 46 135 30 204 6 288q8 22 23 24t31 2q18 0 30-1t26-15q10-10 22-30t12-22l34-886q0-30-16-50t-46-20q-10 0-24 2t-28 8-25 15-13 21l-34 200-8 24q-14-30-28-65t-32-63-44-47-66-19q-70 0-116 35t-75 88-41 115-12 116zm48 1000l166 292q2 4 7 17t11 27 12 27 8 19q8 16 29 19t41 3q16 0 28-3t24-15q6-10 23-35t37-52 37-52 23-33q2-2 8-9t6-9q6-8 20-29l30-45 30-46 20-30q6-10 7-15t1-15q0-22-18-30t-48-8q-26 0-47 11t-31 27l-134 198-8-6q-6-8-12-22t-21-42-41-73-72-117q-4-4-21-10t-23-6q-12 0-31 5t-35 13-25 19-1 25z"/><glyph unicode="ü" horiz-adv-x="700" d="M28 350l16 484q-2 14 7 29t24 28 34 21 35 8q46 0 78-29t32-75v-20q-22-36-38-94t-25-125-11-137 5-128 23-99 42-49q10 0 31 10t45 38 50 79 46 135 30 204 6 288q8 22 23 24t31 2q18 0 30-1t26-15q10-10 22-30t12-22l34-886q0-30-16-50t-46-20q-10 0-24 2t-28 8-25 15-13 21l-34 200-8 24q-14-30-28-65t-32-63-44-47-66-19q-70 0-116 35t-75 88-41 115-12 116zm110 1070q0 28 21 52t49 24q34 0 55-18t41-40v-6q0-34-23-61t-61-27q-26 0-54 24t-28 52zm258 0q0 28 21 52t49 24q34 0 55-18t41-40v-6q0-34-23-61t-61-27q-26 0-54 24t-28 52z"/><glyph unicode="ý" horiz-adv-x="684" d="M40 600q4 18 21 26t33 8q40 0 72-18t58-46 47-61 41-63q12-18 30-46t36-55 31-47l13-20 24-26v210q0 100-4 195t-4 193q0 28 20 46t48 16q34-4 51-12t35-32q16-22 15-52t1-58q8-190 13-379t5-379q-2-18-2-73t1-125 2-146 2-139 2-104 3-39q0-30-21-44t-51-14q-40 0-59 11t-29 30-14 43-14 50q-4 42-5 102t-1 126 1 134 5 124V8q-10 14-24 29t-49 60-99 134-172 249q-42 44-54 73t-8 47zm160 658q-6 52 9 82t40 54 55 50 58 72q30 24 56 16t48-42q12-18 11-33t-9-30-19-27-19-24q-16-20-46-55t-64-62-67-33-53 32z"/><glyph unicode="þ" horiz-adv-x="788" d="M-38 772q0 12 6 16t10 12q4 6 16 22t26 35 26 36 16 23q-6 22-14 68t-14 102-5 112 13 98 38 62 74 4q12 0 20-42t15-92 15-92 20-42h8q82 64 169 113t195 49q70 0 115-41t45-115q0-92-42-190T609 719 473 544 340 402q-6-8-18-17t-22-19q-12-10-26-24V104q0-18-1-38t-8-37-20-28-37-11q-12 0-32 5t-38 15-31 24-13 32L62 672q-38 14-69 34t-31 66zm278 84l8-310h8q2 0 13 12t26 28 30 33 23 27q60 44 110 110t81 133 38 121-18 75-86-5-165-120q-24-20-44-46t-24-58z"/><glyph unicode="ÿ" horiz-adv-x="684" d="M40 600q4 18 21 26t33 8q40 0 72-18t58-46 47-61 41-63q12-18 30-46t36-55 31-47l13-20 24-26v210q0 100-4 195t-4 193q0 28 20 46t48 16q34-4 51-12t35-32q16-22 15-52t1-58q8-190 13-379t5-379q-2-18-2-73t1-125 2-146 2-139 2-104 3-39q0-30-21-44t-51-14q-40 0-59 11t-29 30-14 43-14 50q-4 42-5 102t-1 126 1 134 5 124V8q-10 14-24 29t-49 60-99 134-172 249q-42 44-54 73t-8 47zm90 820q0 28 21 52t49 24q34 0 55-18t41-40v-6q0-34-23-61t-61-27q-26 0-54 24t-28 52zm258 0q0 28 21 52t49 24q34 0 55-18t41-40v-6q0-34-23-61t-61-27q-26 0-54 24t-28 52z"/><glyph unicode="Œ" horiz-adv-x="1276" d="M43 547q1 77 4 169t14 186 32 181 55 151q12 54 58 75t130 25q54 0 92-28t65-69 47-89 36-86v-10q14-40 21-119t10-166 3-167V478q0-60-16-143t-51-157-91-126T318 0q-66 0-117 34t-86 87-53 115-18 118q2 12 0 64t-1 129zm158 2q3-153 37-329 4-22 23-45t45-23h16q84 76 110 175t26 209q0 26-2 80t-7 121-13 141-20 139-28 113-38 66q-2-2-5-8t-3-8q-42-52-76-142t-51-213-14-276zm275 615q0 64 26 90t92 26q14 0 23-12t21-12h8q6 2 18 5t16 3q168 72 262 112t142 58 65 20 29-4q24-4 33-15t9-33q0-20-6-40t-28-30l-262-126-8-8-220-94q-12-4-14-20t-2-26q0-16 4-58t8-87 9-80 7-35h2l2 2q22 16 70 55t98 79 88 71 40 31q22 0 40-22t18-46-10-54-32-46L712 590v-10l-1-22-1-25v-21q0-72 10-143t10-143h8q2 0 18 16t24 26q4 6 19 26t51 66 96 122 154 192q8 8 23 24t19 16q6 6 25 5t27-5q10-4 26-22t16-34q0-24-25-63t-59-81-68-81-52-63q-28-44-67-107t-85-120-101-98T662 4q-30 0-43 10t-33 36q-20 80-30 151t-14 151q-2 46 0 79t-8 73q-2 8-9 12t-14 10-13 15-6 29q0 16 7 28t14 23 14 24 7 31v30q0 20-4 68t-8 102-7 102-5 66q-2 34-18 60t-16 60z"/><glyph unicode="œ" horiz-adv-x="1358" d="M52 300v6l74 514q4 26 23 38t43 12q44 0 70-25t44-61h2q24 0 43 9t47 9q76 0 123-53t75-125q10 30 19 54t13 34q14 34 31 69t40 63 54 46 73 18q24 0 59-22t67-53 54-65 22-58q0-30-14-55t-35-46-45-39-44-34q-2 0-8-4t-10-6l-9-9-15-15-15-16-9-10q-6-6-23-19t-37-28-37-28-23-17l-8-16q-4-8-7-35t-7-61-7-69-3-57q0-2 2-4 4-4 6-4 16 0 30 14t30 20l320 296 82 126q10 14 39 31t59 18 53-19 23-78q-4-36-9-56t-17-36-34-33-60-48-94-81-136-130q-32-30-66-62t-71-57-77-41-84-16q-74 0-114 42t-50 104q-48-58-108-96T276-2 173 26t-70 71-39 97-12 106zm168-6q4-20 8-46t12-47 23-32 43-1q22 20 48 45t50 54 43 60 29 65q24 34 29 80t-6 90-35 76-56 38-70-22-76-106q-26-52-34-121t-8-127v-6zm524 322l132 86q10 8 8 24t-11 28-23 15-26-15q-6-8-21-32t-30-49-25-43-4-14z"/><glyph unicode="Ÿ" horiz-adv-x="848" d="M12 1014q0 34 26 49t56 15q20 0 42-5t38-21q76-84 170-168t192-144l8 26 84 540q4 22 25 28t39 6q52 0 79-25t27-83v-4q0-2-3-10t-6-18-5-19-2-11q-6-24-16-93t-22-164-26-209-28-229-28-222-26-189q2-20 3-46t-7-50-25-40-47-16q-38 0-67 20t-41 56q2 10 5 38t8 59 9 58 6 39q10 90 25 179t15 179v30l-32 16q-8 4-40 26t-71 50-77 57-58 47q-12 8-39 31t-56 50-55 52-36 35q-16 16-30 37t-14 43zm130 406q0 28 21 52t49 24q34 0 55-18t41-40v-6q0-34-23-61t-61-27q-26 0-54 24t-28 52zm258 0q0 28 21 52t49 24q34 0 55-18t41-40v-6q0-34-23-61t-61-27q-26 0-54 24t-28 52z"/><glyph unicode="ˆ" horiz-adv-x="708" d="M64 1350l166 292q2 4 7 17t11 27 12 27 8 19q8 16 29 19t41 3q16 0 28-3t24-15q6-10 23-35t37-52 37-52 23-33q2-2 8-9t6-9q6-8 20-29l30-45 30-46 20-30q6-10 7-15t1-15q0-22-18-30t-48-8q-26 0-47 11t-31 27l-134 198-8-6q-6-8-12-22t-21-42-41-73-72-117q-4-4-21-10t-23-6q-12 0-31 5t-35 13-25 19-1 25z"/><glyph unicode="˜" horiz-adv-x="816" d="M78 1004q0 10 1 17t3 17q14 42 29 84t36 79 48 65 63 40q14 0 26-3t24-19l114-144q16-10 27-24t31-14q14 0 26 22t18 32q12 18 21 40t20 42 24 33 33 13q22 0 29-18t7-46q0-42-14-89t-37-85-51-63-58-25q-36-2-68 16t-61 45-57 57-54 52q-20 0-37-28t-32-61-30-60-29-27-33 14-19 38z"/><glyph horiz-adv-x="995"/><glyph horiz-adv-x="1990"/><glyph horiz-adv-x="995"/><glyph horiz-adv-x="1990"/><glyph horiz-adv-x="663"/><glyph horiz-adv-x="497"/><glyph horiz-adv-x="331"/><glyph horiz-adv-x="331"/><glyph horiz-adv-x="248"/><glyph horiz-adv-x="398"/><glyph horiz-adv-x="110"/><glyph unicode="‐" horiz-adv-x="818" d="M108 506q0 34 24 49t52 21l502 50q34 0 64-12t30-52q0-10-13-22t-29-22-34-17-26-3l-494-54q-26 0-51 17t-25 45z"/><glyph unicode="‑" horiz-adv-x="818" d="M108 506q0 34 24 49t52 21l502 50q34 0 64-12t30-52q0-10-13-22t-29-22-34-17-26-3l-494-54q-26 0-51 17t-25 45z"/><glyph unicode="‒" horiz-adv-x="818" d="M108 506q0 34 24 49t52 21l502 50q34 0 64-12t30-52q0-10-13-22t-29-22-34-17-26-3l-494-54q-26 0-51 17t-25 45z"/><glyph unicode="–" horiz-adv-x="818" d="M108 506q0 34 24 49t52 21l502 50q34 0 64-12t30-52q0-10-13-22t-29-22-34-17-26-3l-494-54q-26 0-51 17t-25 45z"/><glyph unicode="—" horiz-adv-x="1242" d="M108 506q0 34 24 49t52 21l782 62q34 0 64-12t30-52q0-10-13-22t-29-22-34-17-26-3l-774-66q-26 0-51 17t-25 45z"/><glyph unicode="‘" horiz-adv-x="258" d="M46 978v32q0 14 3 50t6 76 5 76 2 52q14 50 64 50 44 0 62-25t18-65q0-12-1-47t-5-80-9-94-13-89-20-66-26-24q-28 4-44 21t-26 39-13 47-3 47z"/><glyph unicode="’" horiz-adv-x="258" d="M46 978v32q0 14 3 50t6 76 5 76 2 52q14 50 64 50 44 0 62-25t18-65q0-12-1-47t-5-80-9-94-13-89-20-66-26-24q-28 4-44 21t-26 39-13 47-3 47z"/><glyph unicode="‚" horiz-adv-x="258" d="M34 136v32q0 14 3 50t6 76 5 76 2 52q14 50 64 50 44 0 62-25t18-65q0-12-1-47t-5-80-9-94-13-89-20-66-26-24Q92-14 76 3T50 42 37 89t-3 47z"/><glyph unicode="“" horiz-adv-x="506" d="M86 986v26q2 34 6 86t8 102 7 86 3 38l16 50q0 2 12 3t18 1q58 0 70-32t12-84q0-100-8-202t-20-200q-2-36-38-36-26 0-43 19t-26 44-13 53-4 46zm208 366q-8 32 13 46t47 14q34 0 52-23t24-53q2-24 5-80t7-119 8-120 4-79v-46q0-20-1-31t-5-19-14-15-28-15h-6q-36 0-52 30t-22 71-5 81-1 60q-2 18-5 60t-7 89-8 89-6 60z"/><glyph unicode="”" horiz-adv-x="506" d="M86 986v26q2 34 6 86t8 102 7 86 3 38l16 50q0 2 12 3t18 1q58 0 70-32t12-84q0-100-8-202t-20-200q-2-36-38-36-26 0-43 19t-26 44-13 53-4 46zm208 366q-8 32 13 46t47 14q34 0 52-23t24-53q2-24 5-80t7-119 8-120 4-79v-46q0-20-1-31t-5-19-14-15-28-15h-6q-36 0-52 30t-22 71-5 81-1 60q-2 18-5 60t-7 89-8 89-6 60z"/><glyph unicode="„" horiz-adv-x="506" d="M70 128v26q2 34 6 86t8 102 7 86 3 38l16 50q0 2 12 3t18 1q58 0 70-32t12-84q0-100-8-202T194 2q-2-36-38-36-26 0-43 19T87 29 74 82t-4 46zm208 366q-8 32 13 46t47 14q34 0 52-23t24-53q2-24 5-80t7-119 8-120 4-79V34q0-20-1-31t-5-19-14-15-28-15h-6q-36 0-52 30t-22 71-5 81-1 60q-2 18-5 60t-7 89-8 89-6 60z"/><glyph unicode="•" horiz-adv-x="530" d="M102 588q0 28 12 57t32 52 46 37 54 14q68 0 113-37t85-85v-12q0-36-13-69t-35-59-55-42-71-16q-26 0-56 14t-55 37-41 52-16 57z"/><glyph unicode="…" horiz-adv-x="774" d="M44 76q0 28 21 52t49 24q34 0 55-18t41-40v-6q0-34-23-61T126 0q-26 0-54 24T44 76zm258 0q0 28 21 52t49 24q34 0 55-18t41-40v-6q0-34-23-61T384 0q-26 0-54 24t-28 52zm258 0q0 28 21 52t49 24q34 0 55-18t41-40v-6q0-34-23-61T642 0q-26 0-54 24t-28 52z"/><glyph horiz-adv-x="398"/><glyph unicode="‹" horiz-adv-x="906" d="M26 322q0 28 17 45t35 39q6 8 23 30t36 46 36 45 23 31q6 20 21 33t23 33l210 330q12 18 19 41t16 43 23 33 42 13q44 0 71-32t31-72q2-4-1-13t-7-13L392 558q-10-22-30-45l-40-46-35-47-15-46q130 0 254-7t254-21q6-12 19-19t25-14 21-17 9-30q0-80-82-80-28 0-45 10t-41 14q-76 16-152 22t-154 6q-6 0-27-1t-47-3-47-3-27-1h-60q-24 0-50 3t-47 12-35 27-14 50z"/><glyph unicode="›" horiz-adv-x="862" d="M32 1064q-2 14 11 25t30 18 35 10 24 3q78-46 161-78t168-61 171-57 170-66q14-18 20-29t6-27q0-40-27-68t-49-60q-48-68-89-131t-83-124-91-121-111-122q-4-6-23-18t-27-16q-16-4-36 0t-38 14-30 26-12 36q0 14 9 28t22 26 27 22 26 16l320 448q8 12 8 22v6L76 996q-4 0-11 9t-14 21-13 23-6 15z"/><glyph horiz-adv-x="497"/><glyph unicode="€" horiz-adv-x="1070" d="M14 672q-4 38 18 53t50 23q48 18 101 33t133 33q2 10 3 16t1 10v4q18 62 38 134t53 134 85 104 134 42q36 0 65-5t55-17 51-29 53-41q20-18 23-22t3-24q0-26-18-50t-52-24q-28 0-46 13t-35 30-36 30-49 13q-32 0-56-17t-41-43-26-58-13-60l-16-102q40 10 87 20t101 22h10q8 0 19-4t22-11 19-15 8-16q0-26-14-49t-36-33q-60-22-120-39t-118-33l-16-104q54 16 110 42 44 14 67 19t57 5q26 0 58-10t36-40q-2-8-11-31t-13-27-19-14-23-14q-74-12-145-42t-143-62l-14-102q0-4-1-19t-1-23v-35l4-42 14-36 30-15q6 0 10 3t12 5q124 34 213 86t149 100 94 82 52 34q28 0 54-24t26-56v-4q2-10-47-69T886 175 678 54 416 0h-10q-90 34-121 101t-31 157v48l6 54q-12-4-25-5t-25-3q-34 0-69 21t-35 59q36 36 80 61t96 43q4 34 7 62t7 52q-40-10-79-21t-79-25q-14 0-35 4t-40 12-33 21-16 31z"/><glyph unicode="™" horiz-adv-x="2068" d="M20 1018q0 22 15 43t37 29l322 102q6 22 23 45t45 23 47-14 43-22q18 2 60 12t89 21 89 21 58 14q24 4 36 10t38 6q30 0 62-16 16 10 40 10 34 0 60-21t42-49l288-556q2-4 14-24t18-28q2-2 6-4t4-4l8 18 170 598q18 28 27 63t20 69 28 64 51 50h16q54 0 80-31t36-76 9-94 1-85q0-14 3-54t7-94 8-115 7-115 6-94 3-52v-8q2-18 8-60t13-89 13-89 10-58q2-10 7-30t12-43 13-43 10-28q-8-46-23-71t-65-25q-6 0-18 1t-14 1q-6 4-23 20t-19 22l-32 110-60 456v18q-2 36-2 77t-1 83-5 84-16 78l-10-12-144-580q-2-22-4-47t-10-48-24-39-46-18q-12-2-26 4t-28 16-25 23-13 25l-254 404-42 84V714q0-122 5-239t5-239v-35l-1-53-1-53V60q-8-24-23-42t-43-18q-38 0-59 13t-35 47q-4 222-11 443t-7 443v87l1 61 1 60-364-92v-18q0-62 11-122t7-120l68-618v-44q0-24-1-49t-8-45-23-33-48-13q-24 0-51 20t-29 48l-76 794v16q-2 16-5 41t-6 48-5 39l-2 16h-16l-228-68q-10-16-33-16h-35q-28 0-57 25t-29 55z"/><glyph unicode="" horiz-adv-x="1000" d="M0 0v1000h1000V0H0z"/><glyph unicode="ﬁ" horiz-adv-x="932" d="M19 523q1 23 9 29 6 2 27 16t25 18q2 0 5 3l5 5v36q0 112-13 221t-13 219q0 72 3 150t26 144 73 108 144 42h38l41-5 33-18 14-37q0-36-17-47t-43-14-54-8-48-31q-4-4-10-21t-6-23q-4-14-8-38t-7-48-6-43-3-21v-15l-1-31-1-37V968l2-71 6-71 10-80h16l270 160q28 6 50 20t50 14 58-14 30-44q0-22-10-32t-16-28q-8-2-30-12t-30-14q-16-10-51-31t-73-44-70-43-42-26q-14-10-34-24t-39-29-33-26l-14-11v-20l52-170q-2-6-1-13t9-11l94-286q10-36-15-60t-57-24q-36 0-70 19t-44 57L140 416l-8 16q-44-8-69 7t-35 38-9 46zm595 1011q0 14 23 25t35 11q30 0 67-17t37-51-9-46-43-12q-36 0-73 24t-37 66zm18-588v8q0 22 19 37t39 15q30 0 65-10t47-42q18-98 25-198t12-199 14-199 33-198q0-4 3-16t6-26 5-26 2-16v-4q0-2 2-4 0-24-22-48T836 0q-6 2-29 7t-31 9q-6 2-16 9t-19 15-15 18 0 18q-20 200-34 342t-24 238-17 153-11 86-6 39-2 12z"/><glyph unicode="ﬂ" horiz-adv-x="892" d="M19 523q1 23 9 29 6 2 27 16t25 18q2 0 5 3l5 5v36q0 112-13 221t-13 219q0 72 3 150t26 144 73 108 144 42h38l41-5 33-18 14-37q0-36-17-47t-43-14-54-8-48-31q-4-4-10-21t-6-23q-4-14-8-38t-7-48-6-43-3-21v-15l-1-31-1-37V968l2-71 6-71 10-80h16l270 160q28 6 50 20t50 14 58-14 30-44q0-22-10-32t-16-28q-8-2-30-12t-30-14q-16-10-51-31t-73-44-70-43-42-26q-14-10-34-24t-39-29-33-26l-14-11v-20l52-170q-2-6-1-13t9-11l94-286q10-36-15-60t-57-24q-36 0-70 19t-44 57L140 416l-8 16q-44-8-69 7t-35 38-9 46zm613 841q0 38 18 51t54 13q46 0 79-27t35-75q-4-284 7-563t11-565V44q-12-16-34-32T758 0q-58 10-84 47t-26 93q0 84 4 164t4 164q-6 228-4 447t-20 449z"/></font>
</defs>
</svg>
